<svg xmlns="http://www.w3.org/2000/svg" width="24" height="25" viewBox="0 0 24 25" fill="currentColor">
<path fill-rule="evenodd" clip-rule="evenodd" d="M12.835 18.483C12.835 15.399 15.3346 12.9006 18.4174 12.9006C21.5002 12.9006 23.9998 15.399 23.9998 18.483C23.9998 21.5658 21.5002 24.0655 18.4174 24.0655C15.3346 24.0655 12.835 21.5659 12.835 18.483ZM18.4174 14.5699C16.2562 14.5699 14.5043 16.3219 14.5043 18.483C14.5043 20.6441 16.2563 22.3961 18.4174 22.3961C20.5785 22.3961 22.3305 20.6441 22.3305 18.483C22.3305 16.3219 20.5785 14.5699 18.4174 14.5699Z" fill="currentColor"/>
<path fill-rule="evenodd" clip-rule="evenodd" d="M18.4172 14.9874C18.878 14.9874 19.2512 15.3606 19.2512 15.8214V17.6478H20.2436C20.7044 17.6478 21.0776 18.0222 21.0776 18.483C21.0776 18.9438 20.7044 19.317 20.2436 19.317H18.4688C17.9792 19.317 17.582 18.921 17.582 18.4302V15.8214C17.582 15.3606 17.9564 14.9874 18.4172 14.9874Z" fill="#646464"/>
<path fill-rule="evenodd" clip-rule="evenodd" d="M0 6.11822C0 2.77496 2.7096 0.0654602 6.05153 0.0654602H16.747C20.0903 0.0654602 22.7998 2.77506 22.7998 6.11699V12.645C22.7998 12.9486 22.6354 13.2282 22.3702 13.3758C22.105 13.5222 21.781 13.5138 21.523 13.3542C20.6182 12.7902 19.7542 12.483 18.4175 12.483C15.1031 12.483 12.4176 15.1686 12.4176 18.4829C12.4176 19.5389 12.7404 20.7413 13.3128 21.5477C13.494 21.8021 13.5168 22.1357 13.374 22.4141C13.23 22.6913 12.9444 22.8653 12.6324 22.8653H6.05277C2.70951 22.8653 6.15234e-06 20.1558 6.15234e-06 16.8138L0 6.11822ZM6.05153 1.73448C3.63113 1.73448 1.66902 3.69647 1.66902 6.11822V16.8137C1.66902 19.2341 3.63101 21.1962 6.05276 21.1962H11.2549C10.9141 20.3118 10.7473 19.3482 10.7473 18.483C10.7473 14.247 14.1818 10.8138 18.4178 10.8138C19.4858 10.8138 20.3474 10.9794 21.131 11.2854V6.11705C21.131 3.69666 19.1678 1.73454 16.7472 1.73454L6.05153 1.73448Z" fill="currentColor"/>
<path fill-rule="evenodd" clip-rule="evenodd" d="M3.96484 6.22145C3.96484 5.06945 4.89965 4.13464 6.05165 4.13464H15.4956C16.6476 4.13464 17.5824 5.06945 17.5824 6.22145C17.5824 7.37465 16.6476 8.30946 15.4956 8.30946H6.05165C4.89965 8.30946 3.96484 7.37465 3.96484 6.22145ZM6.05165 5.80504C5.82125 5.80504 5.63524 5.99104 5.63524 6.22145C5.63524 6.45305 5.82124 6.63906 6.05165 6.63906H15.4956C15.726 6.63906 15.9132 6.45306 15.9132 6.22145C15.9132 5.99105 15.726 5.80504 15.4956 5.80504H6.05165Z" fill="currentColor"/>
<path fill-rule="evenodd" clip-rule="evenodd" d="M5 5.99974C5 5.44786 5.82377 5.00003 6.83893 5.00003H15.1611C16.1762 5.00003 17 5.44786 17 5.99974C17 6.5522 16.1762 7.00003 15.1611 7.00003H6.83893C5.82377 7.00003 5 6.5522 5 5.99974ZM6.83893 5.80026C6.6359 5.80026 6.47198 5.88936 6.47198 5.99974C6.47198 6.1107 6.63589 6.1998 6.83893 6.1998H15.1611C15.3641 6.1998 15.5291 6.1107 15.5291 5.99974C15.5291 5.88937 15.3641 5.80026 15.1611 5.80026H6.83893Z" fill="currentColor" stroke="currentColor"/>
<path fill-rule="evenodd" clip-rule="evenodd" d="M5 11.9997C5 11.4479 5.34324 11 5.76622 11H9.23378C9.65676 11 10 11.4479 10 11.9997C10 12.5522 9.65676 13 9.23378 13H5.76622C5.34324 13 5 12.5522 5 11.9997ZM5.76622 11.8003C5.68162 11.8003 5.61333 11.8894 5.61333 11.9997C5.61333 12.1107 5.68162 12.1998 5.76622 12.1998H9.23378C9.31838 12.1998 9.38712 12.1107 9.38712 11.9997C9.38712 11.8894 9.31838 11.8003 9.23378 11.8003H5.76622Z" fill="currentColor" stroke="currentColor"/>
<path fill-rule="evenodd" clip-rule="evenodd" d="M5 16.9997C5 16.4479 5.13729 16 5.30649 16H6.69351C6.86271 16 7 16.4479 7 16.9997C7 17.5522 6.86271 18 6.69351 18H5.30649C5.13729 18 5 17.5522 5 16.9997ZM5.30649 16.8003C5.27265 16.8003 5.24533 16.8894 5.24533 16.9997C5.24533 17.1107 5.27265 17.1998 5.30649 17.1998H6.69351C6.72735 17.1998 6.75485 17.1107 6.75485 16.9997C6.75485 16.8894 6.72735 16.8003 6.69351 16.8003H5.30649Z" fill="currentColor" stroke="currentColor"/>
<path fill-rule="evenodd" clip-rule="evenodd" d="M3.96484 11.4918C3.96484 10.3386 4.89965 9.40497 6.05165 9.40497H9.39122C10.5444 9.40497 11.478 10.3386 11.478 11.4918C11.478 12.6438 10.5444 13.5786 9.39122 13.5786H6.05165C4.89965 13.5786 3.96484 12.6438 3.96484 11.4918ZM6.05165 11.0742C5.82125 11.0742 5.63524 11.2614 5.63524 11.4918C5.63524 11.7222 5.82124 11.9094 6.05165 11.9094H9.39122C9.62162 11.9094 9.80883 11.7222 9.80883 11.4918C9.80883 11.2614 9.62163 11.0742 9.39122 11.0742H6.05165Z" fill="currentColor"/>
<path fill-rule="evenodd" clip-rule="evenodd" d="M3.96484 16.7609C3.96484 15.6089 4.89965 14.674 6.05165 14.674H6.46926C7.62246 14.674 8.55607 15.6089 8.55607 16.7609C8.55607 17.9141 7.62246 18.8477 6.46926 18.8477H6.05165C4.89965 18.8477 3.96484 17.9141 3.96484 16.7609ZM6.05165 16.3433C5.82125 16.3433 5.63524 16.5305 5.63524 16.7609C5.63524 16.9913 5.82124 17.1785 6.05165 17.1785H6.46926C6.69966 17.1785 6.88687 16.9913 6.88687 16.7609C6.88687 16.5305 6.69967 16.3433 6.46926 16.3433H6.05165Z" fill="currentColor"/>
</svg>