<svg xmlns="http://www.w3.org/2000/svg" width="24" height="20" viewBox="0 0 24 20" fill="currentColor">
<path d="M24 1.1889V3.3889H0V1.1889C0 0.742023 0.364062 0.376398 0.8125 0.376398H23.1875C23.6359 0.376398 24 0.742023 24 1.1889ZM22.1047 1.88265C22.1047 1.73734 21.9859 1.61859 21.8406 1.61859H11.1375C10.9922 1.61859 10.8734 1.73734 10.8734 1.88265C10.8734 2.02796 10.9922 2.14671 11.1375 2.14671H21.8406C21.9875 2.14671 22.1047 2.02796 22.1047 1.88265ZM7.64531 1.88265C7.64531 1.59046 7.40781 1.35296 7.11562 1.35296C6.82344 1.35296 6.58594 1.59046 6.58594 1.88265C6.58594 2.17484 6.82344 2.41234 7.11562 2.41234C7.40937 2.41234 7.64531 2.17484 7.64531 1.88265ZM5.43125 1.88265C5.43125 1.59046 5.19375 1.35296 4.90156 1.35296C4.60938 1.35296 4.37187 1.59046 4.37187 1.88265C4.37187 2.17484 4.60938 2.41234 4.90156 2.41234C5.19531 2.41234 5.43125 2.17484 5.43125 1.88265ZM3.21719 1.88265C3.21719 1.59046 2.97969 1.35296 2.6875 1.35296C2.39531 1.35296 2.15781 1.59046 2.15781 1.88265C2.15781 2.17484 2.39531 2.41234 2.6875 2.41234C2.97969 2.41234 3.21719 2.17484 3.21719 1.88265Z" fill="currentColor"/>
<path d="M21.8557 6.21081H2.1416V10.5186H21.8557V6.21081Z" fill="currentColor"/>
<path d="M24 3.91699V18.942C24 19.3904 23.6359 19.7545 23.1875 19.7545H0.8125C0.365625 19.7545 0 19.3904 0 18.942V3.91699H24ZM22.3844 17.7248V12.8889C22.3844 12.7436 22.2656 12.6248 22.1203 12.6248H14.3094C14.1641 12.6248 14.0453 12.7436 14.0453 12.8889V17.7232C14.0453 17.8686 14.1641 17.9873 14.3094 17.9873H22.1203C22.2672 17.9873 22.3844 17.8701 22.3844 17.7248ZM22.3844 10.7811V5.94668C22.3844 5.80136 22.2656 5.68261 22.1203 5.68261H1.87969C1.73438 5.68261 1.61563 5.7998 1.61563 5.94668V10.7811C1.61563 10.9264 1.73281 11.0451 1.87969 11.0451H22.1219C22.2672 11.0451 22.3844 10.9264 22.3844 10.7811ZM12.4734 13.1779C12.4734 13.0326 12.3547 12.9139 12.2094 12.9139H8.95781C8.8125 12.9139 8.69375 13.0326 8.69375 13.1779C8.69375 13.3232 8.81094 13.442 8.95781 13.442H12.2094C12.3547 13.442 12.4734 13.3248 12.4734 13.1779ZM12.4734 15.3061C12.4734 15.1607 12.3547 15.042 12.2094 15.042H5.77656C5.63125 15.042 5.5125 15.1607 5.5125 15.3061C5.5125 15.4514 5.62969 15.5701 5.77656 15.5701H12.2094C12.3547 15.5701 12.4734 15.4529 12.4734 15.3061ZM12.4734 17.4342C12.4734 17.2889 12.3547 17.1701 12.2094 17.1701H9.83594C9.69063 17.1701 9.57187 17.2889 9.57187 17.4342C9.57187 17.5795 9.68906 17.6982 9.83594 17.6982H12.2094C12.3547 17.6982 12.4734 17.5795 12.4734 17.4342ZM8.50937 17.4342C8.50937 17.2889 8.39219 17.1701 8.24531 17.1701H1.87969C1.73438 17.1701 1.61563 17.2889 1.61563 17.4342C1.61563 17.5795 1.73281 17.6982 1.87969 17.6982H8.24531C8.39062 17.6982 8.50937 17.5795 8.50937 17.4342ZM7.84375 13.1779C7.84375 13.0326 7.72656 12.9139 7.57969 12.9139H1.87969C1.73438 12.9139 1.61563 13.0326 1.61563 13.1779C1.61563 13.3232 1.73281 13.442 1.87969 13.442H7.58125C7.72656 13.442 7.84375 13.3248 7.84375 13.1779ZM4.64062 15.3061C4.64062 15.1607 4.52187 15.042 4.37656 15.042H1.87969C1.73438 15.042 1.61563 15.1607 1.61563 15.3061C1.61563 15.4514 1.73281 15.5701 1.87969 15.5701H4.37656C4.52187 15.5701 4.64062 15.4529 4.64062 15.3061Z" fill="currentColor"/>
<path d="M21.8586 13.1531H14.5742V17.461H21.8586V13.1531Z" fill="currentColor"/>
</svg>