<svg xmlns="http://www.w3.org/2000/svg" width="24" height="27" viewBox="0 0 24 27" fill="currentColor">
<path d="M7.17142 6.59465V3.47203H13.0609V8.17572H11.5552V13.3835H9.74067V6.59465H7.17142ZM16.4109 8.17572V0H22.178V25.06H18.1067V21.3903H19.2666V20.8962H18.1067V20.2379H20.7748V19.7438H18.1067V19.0854H18.5872V18.5913H18.1067V17.933H20.7748V17.4389H18.1067V13.2873H19.2666V12.7932H18.1067V12.1349H20.7748V11.6408H18.1067V10.9824H18.5872V10.4884H18.1067V9.83H20.7748V9.33591H18.1067V8.17604L16.4109 8.17572ZM20.775 20.8961H20.0869V21.3902H20.775V20.8961ZM20.775 18.5899L19.3952 18.5912V19.0852H20.775V18.5899ZM20.775 12.8029H20.0869V13.297H20.775V12.8029ZM20.775 10.4967L19.3952 10.498V10.9921H20.775V10.4967ZM20.775 5.28552L20.0869 5.28676V5.77714H20.775V5.28552ZM20.775 2.97937L19.3952 2.98061V3.47469H20.775V2.97937ZM17.8105 2.32101H20.775V1.82693H17.8105V2.32101ZM17.8105 3.47716L18.5874 3.47839V2.98431H17.8142L17.8105 3.47716ZM17.8105 4.63703H20.775V4.14295H17.8105V4.63703ZM17.8105 5.79317H19.2631V5.29909L17.8142 5.30032L17.8105 5.79317ZM9.24674 13.4155H4.79254V26.048H0V25.5403H1.82193V7.09487H9.24664L9.24674 13.4155ZM3.4363 9.99029H4.51339V9.4962H3.4363V9.99029ZM5.48799 11.8122H3.4363V12.3063H5.48799V11.8122ZM7.62244 11.8122H6.63427V12.3063H7.62244V11.8122ZM7.62244 10.6561H3.4364V11.1502H7.62877L7.62244 10.6561ZM7.62244 9.4962H5.67576V9.99029H7.62864L7.62244 9.4962ZM7.62244 8.34006H3.4364V8.83414H7.62877L7.62244 8.34006ZM5.28666 13.8776H14.5954V26.0655L5.28666 26.0642V13.8776ZM12.6582 19.0879H11.3872V19.582H12.6582V19.0879ZM12.6582 16.7817L10.1261 16.783V17.277H12.6582V16.7817ZM7.23928 16.1234H12.6582V15.6293H7.23328L7.23928 16.1234ZM7.23928 17.2832H8.63259V16.7891H7.23309L7.23928 17.2832ZM7.23928 18.4394H12.6582V17.9453H7.23328L7.23928 18.4394ZM7.23928 19.5993H9.89374V19.1052H7.23309L7.23928 19.5993ZM17.5991 25.5406V8.66993H12.0492V13.3834H15.0891V26.0481H24V25.5404L17.5991 25.5406Z" fill="currentColor"/>
</svg>