<svg xmlns="http://www.w3.org/2000/svg" width="31" height="31" viewBox="0 0 31 31" fill="none">
<rect x="0.5" y="0.5" width="30" height="30" rx="15" fill="currentColor"/>
<path d="M18.3599 10.3255C18.1414 10.2193 17.8934 10.205 17.6642 10.2857C17.4338 10.3659 17.2489 10.5311 17.1433 10.7505C16.9252 11.2031 17.1161 11.7484 17.5685 11.9667C19.1915 12.7492 20.2401 14.4214 20.2401 16.2267C20.2401 18.8404 18.1134 20.9666 15.5 20.9666C12.8862 20.9666 10.7599 18.8404 10.7599 16.2267C10.7599 14.4214 11.8085 12.7492 13.4315 11.9669C13.8843 11.749 14.0748 11.2033 13.8567 10.7503C13.7511 10.5307 13.5655 10.3655 13.3351 10.2854C13.1055 10.2052 12.8579 10.2197 12.6405 10.3255C10.391 11.4095 8.9375 13.726 8.9375 16.2267C8.9375 19.8451 11.8816 22.7891 15.5 22.7891C19.1188 22.7891 22.0625 19.8451 22.0625 16.2267C22.0625 13.7262 20.609 11.4097 18.3599 10.3255Z" fill="currentColor"/>
<path d="M15.5014 13.5046C16.0035 13.5046 16.4123 13.0961 16.4123 12.5936V9.12214C16.4123 8.61966 16.0035 8.21094 15.5014 8.21094C14.9989 8.21094 14.5898 8.61966 14.5898 9.12214V12.5936C14.5898 13.0961 14.9989 13.5046 15.5014 13.5046Z" fill="currentColor"/>
</svg>