<svg xmlns="http://www.w3.org/2000/svg" width="23" height="24" viewBox="0 0 23 24" fill="none">
<path d="M14.5669 23.5003H0.766677C0.343471 23.5003 0 23.1576 0 22.7337V3.56673C0 3.14275 0.343471 2.80005 0.766677 2.80005H14.5669C14.9908 2.80005 15.3335 3.14275 15.3335 3.56673V22.7337C15.3335 23.1576 14.9908 23.5003 14.5669 23.5003ZM1.53335 21.967H13.8002V4.3334H1.53335V21.967Z" fill="currentColor"/>
<path d="M22.2315 23.4999H14.5648C14.1408 23.4999 13.7981 23.1572 13.7981 22.7332V11.9997C13.7981 11.5758 14.1408 11.2331 14.5648 11.2331H22.2315C22.6555 11.2331 22.9982 11.5758 22.9982 11.9997V22.7332C22.9982 23.1572 22.6555 23.4999 22.2315 23.4999ZM15.3315 21.9665H21.4649V12.7664H15.3315V21.9665Z" fill="currentColor"/>
<path d="M10.7346 23.4999H4.60115C4.17794 23.4999 3.83447 23.1572 3.83447 22.7333V17.3665C3.83447 16.9426 4.17794 16.5999 4.60115 16.5999H10.7346C11.1578 16.5999 11.5012 16.9426 11.5012 17.3665V22.7333C11.5012 23.1572 11.1578 23.4999 10.7346 23.4999ZM5.36783 21.9666H9.96789V18.1332H5.36783V21.9666Z" fill="currentColor"/>
<path d="M3.83748 4.33305C3.41427 4.33305 3.0708 3.99035 3.0708 3.56637V1.26634C3.0708 0.842369 3.41427 0.499664 3.83748 0.499664C4.26068 0.499664 4.60416 0.842369 4.60416 1.26634V3.56637C4.60416 3.99035 4.26068 4.33305 3.83748 4.33305Z" fill="currentColor"/>
<path d="M6.89949 4.33305C6.47628 4.33305 6.13281 3.99035 6.13281 3.56637V1.26634C6.13281 0.842369 6.47628 0.499664 6.89949 0.499664C7.3227 0.499664 7.66617 0.842369 7.66617 1.26634V3.56637C7.66617 3.99035 7.3227 4.33305 6.89949 4.33305Z" fill="currentColor"/>
<path d="M8.43284 7.39892H6.89949C6.47628 7.39892 6.13281 7.05622 6.13281 6.63225C6.13281 6.20827 6.47628 5.86557 6.89949 5.86557H8.43284C8.85605 5.86557 9.19952 6.20827 9.19952 6.63225C9.19952 7.05622 8.85605 7.39892 8.43284 7.39892Z" fill="currentColor"/>
<path d="M12.269 7.39978H10.7357C10.3125 7.39978 9.96899 7.05707 9.96899 6.6331C9.96899 6.20913 10.3125 5.86642 10.7357 5.86642H12.269C12.693 5.86642 13.0357 6.20913 13.0357 6.6331C13.0357 7.05707 12.693 7.39978 12.269 7.39978Z" fill="currentColor"/>
<path d="M4.59813 7.39892H3.06477C2.64157 7.39892 2.2981 7.05622 2.2981 6.63225C2.2981 6.20827 2.64157 5.86557 3.06477 5.86557H4.59813C5.02133 5.86557 5.3648 6.20827 5.3648 6.63225C5.3648 7.05622 5.02133 7.39892 4.59813 7.39892Z" fill="currentColor"/>
<path d="M8.43284 11.2335H6.89949C6.47628 11.2335 6.13281 10.8908 6.13281 10.4668C6.13281 10.0428 6.47628 9.7001 6.89949 9.7001H8.43284C8.85605 9.7001 9.19952 10.0428 9.19952 10.4668C9.19952 10.8908 8.85605 11.2335 8.43284 11.2335Z" fill="currentColor"/>
<path d="M12.269 11.2324H10.7357C10.3125 11.2324 9.96899 10.8897 9.96899 10.4657C9.96899 10.0417 10.3125 9.69904 10.7357 9.69904H12.269C12.693 9.69904 13.0357 10.0417 13.0357 10.4657C13.0357 10.8897 12.693 11.2324 12.269 11.2324Z" fill="currentColor"/>
<path d="M4.59813 11.2335H3.06477C2.64157 11.2335 2.2981 10.8908 2.2981 10.4668C2.2981 10.0428 2.64157 9.7001 3.06477 9.7001H4.59813C5.02133 9.7001 5.3648 10.0428 5.3648 10.4668C5.3648 10.8908 5.02133 11.2335 4.59813 11.2335Z" fill="currentColor"/>
<path d="M8.43284 15.0662H6.89949C6.47628 15.0662 6.13281 14.7235 6.13281 14.2995C6.13281 13.8755 6.47628 13.5328 6.89949 13.5328H8.43284C8.85605 13.5328 9.19952 13.8755 9.19952 14.2995C9.19952 14.7235 8.85605 15.0662 8.43284 15.0662Z" fill="currentColor"/>
<path d="M12.269 15.0662H10.7357C10.3125 15.0662 9.96899 14.7235 9.96899 14.2995C9.96899 13.8755 10.3125 13.5328 10.7357 13.5328H12.269C12.693 13.5328 13.0357 13.8755 13.0357 14.2995C13.0357 14.7235 12.693 15.0662 12.269 15.0662Z" fill="currentColor"/>
<path d="M4.59813 15.0662H3.06477C2.64157 15.0662 2.2981 14.7235 2.2981 14.2995C2.2981 13.8755 2.64157 13.5328 3.06477 13.5328H4.59813C5.02133 13.5328 5.3648 13.8755 5.3648 14.2995C5.3648 14.7235 5.02133 15.0662 4.59813 15.0662Z" fill="currentColor"/>
<path d="M19.9389 15.8332H16.8721C16.4482 15.8332 16.1055 15.4905 16.1055 15.0665C16.1055 14.6426 16.4482 14.2999 16.8721 14.2999H19.9389C20.3628 14.2999 20.7055 14.6426 20.7055 15.0665C20.7055 15.4905 20.3628 15.8332 19.9389 15.8332Z" fill="currentColor"/>
<path d="M19.9389 18.9H16.8721C16.4482 18.9 16.1055 18.5573 16.1055 18.1333C16.1055 17.7094 16.4482 17.3667 16.8721 17.3667H19.9389C20.3628 17.3667 20.7055 17.7094 20.7055 18.1333C20.7055 18.5573 20.3628 18.9 19.9389 18.9Z" fill="currentColor"/>
</svg>