<svg xmlns="http://www.w3.org/2000/svg" width="24" height="25" viewBox="0 0 24 25" fill="none">
<path d="M21.4117 0.0660477H4.47133C3.04316 0.0660477 1.88321 1.226 1.88321 2.65417V5.11993C1.88321 5.50933 2.19849 5.82458 2.58787 5.82579H4.46778C5.63478 5.82579 6.5853 6.77631 6.5853 7.94331C6.5853 9.11032 5.63478 10.0608 4.46778 10.0608H2.58552C2.19729 10.062 1.88086 10.3785 1.88086 10.7667V13.3642C1.88086 13.7536 2.19615 14.0689 2.58552 14.0701H4.46778C5.63478 14.0701 6.5853 15.0206 6.5853 16.1876C6.5853 17.3546 5.63478 18.3051 4.46778 18.3051H2.58787C2.19964 18.3063 1.88321 18.6216 1.88321 19.011V21.4768C1.88321 22.9049 3.04316 24.0649 4.47133 24.0649H21.4117C22.8398 24.0649 23.9998 22.9049 23.9998 21.4768V2.65417C23.9998 1.226 22.8398 0.0660477 21.4117 0.0660477ZM13.5616 6.09861C15.0486 6.09861 16.2532 7.30326 16.2532 8.79024C16.2532 10.2772 15.0486 11.4913 13.5616 11.4913C12.0746 11.4913 10.8605 10.2773 10.8605 8.79024C10.8605 7.30323 12.0746 6.09861 13.5616 6.09861ZM18.3708 17.8626C18.2485 17.9755 18.0791 18.032 17.9097 18.032C17.872 18.032 17.8344 18.032 17.7968 18.0226C15.2745 17.6179 11.8488 17.6179 9.31726 18.0226C9.11021 18.0602 8.90316 17.9943 8.74318 17.8626C8.58319 17.7214 8.49849 17.5238 8.49849 17.3167C8.53613 14.5686 10.8042 12.3289 13.5616 12.3289C16.319 12.3289 18.5778 14.5688 18.6154 17.3167C18.6248 17.5238 18.5308 17.7214 18.3708 17.8626Z" fill="#646464"/>
<path d="M0.705862 8.64918H4.47038C4.86565 8.64918 5.17624 8.33862 5.17624 7.94332C5.17624 7.55747 4.86568 7.23745 4.47038 7.23745H0.705862C0.320014 7.23745 0 7.55744 0 7.94332C0 8.33859 0.319984 8.64918 0.705862 8.64918Z" fill="#646464"/>
<path d="M4.47038 16.8935C4.86565 16.8935 5.17624 16.5735 5.17624 16.1876C5.17624 15.7923 4.86568 15.4817 4.47038 15.4817H0.705862C0.320014 15.4817 0 15.7923 0 16.1876C0 16.5735 0.319984 16.8935 0.705862 16.8935H4.47038Z" fill="#646464"/>
<path d="M13.5618 10.0796C14.2677 10.0796 14.8417 9.50557 14.8417 8.79032C14.8417 8.08445 14.2677 7.51038 13.5618 7.51038C12.8465 7.51038 12.2725 8.08445 12.2725 8.79032C12.2725 9.50557 12.8465 10.0796 13.5618 10.0796Z" fill="#646464"/>
<path d="M13.5621 13.7406C11.8681 13.7406 10.4186 14.917 10.0234 16.4981C12.2257 16.2346 14.889 16.2346 17.1007 16.4981C16.696 14.917 15.2561 13.7406 13.5621 13.7406Z" fill="#646464"/>
</svg>