<svg xmlns="http://www.w3.org/2000/svg" width="24" height="20" viewBox="0 0 24 20" fill="currentColor">
<path d="M0 1.26542V18.8654C0.000999936 19.3064 0.358989 19.6644 0.8 19.6654H7.2V0.465424H0.8C0.358989 0.466424 0.0009984 0.824412 0 1.26542ZM2.4 2.86542H4.8C5.24201 2.86542 5.6 3.22341 5.6 3.66542C5.6 4.10743 5.24201 4.46542 4.8 4.46542H2.4C1.95799 4.46542 1.6 4.10743 1.6 3.66542C1.6 3.22341 1.95799 2.86542 2.4 2.86542ZM2.4 6.06542H4.8C5.24201 6.06542 5.6 6.42342 5.6 6.86542C5.6 7.30743 5.24201 7.66542 4.8 7.66542H2.4C1.95799 7.66542 1.6 7.30743 1.6 6.86542C1.6 6.42342 1.95799 6.06542 2.4 6.06542ZM2.4 9.26542H4.8C5.24201 9.26542 5.6 9.62342 5.6 10.0654C5.6 10.5074 5.24201 10.8654 4.8 10.8654H2.4C1.95799 10.8654 1.6 10.5074 1.6 10.0654C1.6 9.62342 1.95799 9.26542 2.4 9.26542ZM24 1.26542V18.8654C23.999 19.3064 23.641 19.6644 23.2 19.6654H8.8V0.465424H23.2C23.641 0.466424 23.999 0.824412 24 1.26542Z" fill="currentColor"/>
</svg>