<svg xmlns="http://www.w3.org/2000/svg" width="29" height="30" viewBox="0 0 29 30" fill="none">
<path d="M28.837 9.72804L24.102 5.70911C23.9974 5.6204 23.8558 5.5707 23.7081 5.5707H21.6036V5.3273C21.6036 5.20181 21.5449 5.08172 21.4403 4.99295L16.7054 0.974214C16.6011 0.885566 16.4594 0.835739 16.3117 0.835739H1.67083C0.749529 0.835739 0 1.47183 0 2.25384V23.6825C0 24.4644 0.749529 25.1007 1.67083 25.1007H7.39636V28.4176C7.39636 29.1995 8.14589 29.8357 9.06712 29.8357H27.3291C28.2505 29.8357 29 29.1996 29 28.4176V10.0622C29.0001 9.93691 28.9414 9.81669 28.837 9.72804ZM1.85658 2.41142H15.3961V5.61308C15.3961 5.93637 15.7049 6.19842 16.0856 6.19842H19.7472L19.7481 23.525H1.85658V2.41142ZM9.25287 28.26V25.1006H19.9328C20.854 25.1006 21.6037 24.4645 21.6037 23.6825V7.14645H22.7925V10.3482C22.7925 10.6713 23.1015 10.9333 23.482 10.9333H27.1438L27.1446 28.26H9.25287Z" fill="#0096A4"/>
<path d="M24.0972 23.7981H22.797C22.5483 23.7981 22.3457 23.9698 22.3457 24.1811V26.9974C22.3457 27.2085 22.5482 27.3804 22.797 27.3804H24.0972C25.2834 27.3804 26.2484 26.5778 26.2484 25.5913C26.2484 24.6026 25.2834 23.7981 24.0972 23.7981ZM24.0972 26.574H23.2959V24.6045H24.0972C24.7595 24.6045 25.2985 25.0473 25.2985 25.5914C25.2985 26.1331 24.7595 26.574 24.0972 26.574Z" fill="#0096A4"/>
</svg>