<svg xmlns="http://www.w3.org/2000/svg" width="17" height="17" viewBox="0 0 17 17" fill="none">
<rect width="16" height="16" transform="translate(0.5 0.5)" fill="white" fill-opacity="0.01"/>
<path d="M14 3.5H11.5002V3C11.4998 2.60231 11.3416 2.22104 11.0604 1.93983C10.7792 1.65863 10.3979 1.50045 10.0002 1.5H7.00025C6.60256 1.50045 6.22129 1.65863 5.94008 1.93983C5.65888 2.22104 5.5007 2.60231 5.50025 3V3.5H3C2.86739 3.5 2.74021 3.55268 2.64645 3.64645C2.55268 3.74021 2.5 3.86739 2.5 4C2.5 4.13261 2.55268 4.25979 2.64645 4.35355C2.74021 4.44732 2.86739 4.5 3 4.5H3.5V13.5C3.5003 13.7651 3.60575 14.0193 3.79322 14.2068C3.98069 14.3942 4.23487 14.4997 4.5 14.5H12.5C12.7651 14.4997 13.0193 14.3942 13.2068 14.2068C13.3942 14.0193 13.4997 13.7651 13.5 13.5V4.5H14C14.1326 4.5 14.2598 4.44732 14.3536 4.35355C14.4473 4.25979 14.5 4.13261 14.5 4C14.5 3.86739 14.4473 3.74021 14.3536 3.64645C14.2598 3.55268 14.1326 3.5 14 3.5ZM6.50025 3C6.50042 2.86744 6.55315 2.74036 6.64688 2.64663C6.74061 2.5529 6.86769 2.50017 7.00025 2.5H10.0002C10.1328 2.50017 10.2599 2.5529 10.3536 2.64663C10.4474 2.74036 10.5001 2.86744 10.5002 3V3.5H6.50025V3ZM12.5 13.5H4.5V4.5H12.5V13.5ZM7.50025 7V11C7.50025 11.1326 7.44757 11.2598 7.3538 11.3536C7.26004 11.4473 7.13286 11.5 7.00025 11.5C6.86764 11.5 6.74046 11.4473 6.6467 11.3536C6.55293 11.2598 6.50025 11.1326 6.50025 11V7C6.50025 6.86739 6.55293 6.74021 6.6467 6.64645C6.74046 6.55268 6.86764 6.5 7.00025 6.5C7.13286 6.5 7.26004 6.55268 7.3538 6.64645C7.44757 6.74021 7.50025 6.86739 7.50025 7ZM10.5002 7V11C10.5002 11.1326 10.4476 11.2598 10.3538 11.3536C10.26 11.4473 10.1329 11.5 10.0002 11.5C9.86764 11.5 9.74046 11.4473 9.6467 11.3536C9.55293 11.2598 9.50025 11.1326 9.50025 11V7C9.50025 6.86739 9.55293 6.74021 9.6467 6.64645C9.74046 6.55268 9.86764 6.5 10.0002 6.5C10.1329 6.5 10.26 6.55268 10.3538 6.64645C10.4476 6.74021 10.5002 6.86739 10.5002 7Z" fill="black" fill-opacity="0.5"/>
</svg>