<svg xmlns="http://www.w3.org/2000/svg" width="30" height="30" viewBox="0 0 30 30" fill="none">
<path fill-rule="evenodd" clip-rule="evenodd" d="M13.9801 2.13675C13.9801 0.412975 16.5988 0.412975 16.5988 2.13675V17.6303L19.3632 14.8659C20.582 13.6471 22.4336 15.4987 21.2148 16.7175L16.2153 21.7171C15.7038 22.2285 14.8747 22.2285 14.3636 21.7171L9.36367 16.7171C8.14488 15.4983 9.99651 13.6467 11.2153 14.8655L13.9801 17.6303V2.13675ZM27.1707 15.3274V25.2282C27.1707 26.3146 26.2765 27.2088 25.1901 27.2088H5.38844C4.30167 27.2088 3.40782 26.3146 3.40782 25.2282V15.3274C3.40782 13.6036 0.789062 13.6036 0.789062 15.3274V25.2282C0.789062 27.7611 2.8563 29.8276 5.38844 29.8276H25.1897C27.7226 29.8276 29.7891 27.7603 29.7891 25.2282V15.3274C29.7894 13.6036 27.1707 13.6036 27.1707 15.3274Z" fill="#0096A4"/>
</svg>