<svg xmlns="http://www.w3.org/2000/svg" width="24" height="24" viewBox="0 0 24 24" fill="currentColor">
<path d="M12 0C13.0708 0 14.1087 0.14024 15.0966 0.403352C14.661 0.806264 14.2856 1.27304 13.9866 1.78952C13.3436 1.66514 12.6794 1.6 12 1.6C10.7062 1.6 9.46752 1.83626 8.32484 2.268L12.3578 4.28444C12.5354 4.37328 12.6736 4.52496 12.7456 4.71004L14.1456 8.31004C14.2322 8.5326 14.2148 8.78216 14.0982 8.99056C13.9816 9.19896 13.778 9.3444 13.5431 9.38708L9.8 10.0677V13.6C9.8 13.9841 9.527 14.314 9.14968 14.3859L5.6 15.062V16.4C5.6 16.7512 5.37096 17.0613 5.03528 17.1646L3.299 17.6989C5.15724 20.5302 8.36028 22.4 12 22.4C12.8978 22.4 13.769 22.2862 14.6 22.0724V20.4216L14.114 19.6116C13.9403 19.3221 13.967 18.9547 14.1808 18.6934L15.2458 17.3918L13.347 16.759C13.1223 16.684 12.9423 16.5134 12.8556 16.2929C12.7688 16.0724 12.7842 15.8249 12.8977 15.6169L14.0977 13.4169C14.1998 13.2297 14.3724 13.091 14.5772 13.0316C14.782 12.9722 15.0021 12.9971 15.1885 13.1007L16.6957 13.938L19.7743 13.0325C19.9502 12.9808 20.1385 12.991 20.3077 13.0615L22.2334 13.8639C22.3429 13.2592 22.4 12.6363 22.4 12C22.4 11.5452 22.3708 11.0973 22.3142 10.658C22.4416 10.5233 22.571 10.382 22.7007 10.2349C22.995 9.9008 23.3201 9.50372 23.6358 9.05448C23.8737 9.99692 24 10.9837 24 12C24 18.6274 18.6274 24 12 24C5.3726 24 0 18.6274 0 12C0 5.3726 5.3726 0 12 0Z" fill="currentColor"/>
<path fill-rule="evenodd" clip-rule="evenodd" d="M18.047 10.8826C18.244 11.056 18.409 11.1928 18.5262 11.2873C18.728 11.4502 18.9268 11.6 19.2004 11.6C19.4682 11.6 19.6764 11.4473 19.8746 11.2873C19.9918 11.1928 20.1568 11.056 20.3538 10.8826C20.7467 10.537 21.2725 10.0411 21.8007 9.4416C22.8216 8.28276 24.0004 6.5718 24.0004 4.72856C24.0004 2.10352 21.8377 0 19.2004 0C16.5631 0 14.4004 2.10352 14.4004 4.72856C14.4004 6.5718 15.5792 8.28276 16.6001 9.4416C17.1283 10.0411 17.654 10.537 18.047 10.8826ZM17.2004 4.8C17.2004 3.69544 18.0958 2.8 19.2004 2.8C20.305 2.8 21.2004 3.69544 21.2004 4.8C21.2004 5.90456 20.305 6.8 19.2004 6.8C18.0958 6.8 17.2004 5.90456 17.2004 4.8Z" fill="currentColor"/>
</svg>