<svg xmlns="http://www.w3.org/2000/svg" width="21" height="22" viewBox="0 0 21 22" fill="currentColor">
<path d="M19.9945 8.00002H14.9945C14.8525 7.99988 14.7122 7.97555 14.5829 7.92865C14.4536 7.88175 14.3382 7.81336 14.2445 7.72802C14.1502 7.64402 14.0791 7.54499 14.036 7.43744C13.9929 7.32989 13.9788 7.21626 13.9945 7.10402L14.9945 0.704021C15.024 0.508893 15.1422 0.329274 15.3267 0.199429C15.5111 0.0695844 15.7488 -0.00139877 15.9945 2.08899e-05H18.9945C19.2402 -0.00139877 19.4779 0.0695844 19.6624 0.199429C19.8468 0.329274 19.965 0.508893 19.9945 0.704021L20.9945 7.10402C21.0116 7.21568 20.9991 7.32898 20.9577 7.4365C20.9164 7.54402 20.8471 7.64336 20.7545 7.72802C20.6597 7.81437 20.5427 7.88337 20.4116 7.93031C20.2804 7.97724 20.1382 8.00102 19.9945 8.00002ZM16.1245 6.40002H18.8645L18.1145 1.60002H16.8745L16.1245 6.40002Z" fill="currentColor"/>
<path d="M20 21.601H9C8.73478 21.601 8.48043 21.5167 8.29289 21.3667C8.10536 21.2166 8 21.0132 8 20.801V18.401H6V20.801C6 21.0132 5.89464 21.2166 5.70711 21.3667C5.51957 21.5167 5.26522 21.601 5 21.601H1C0.734784 21.601 0.48043 21.5167 0.292894 21.3667C0.105357 21.2166 4.68795e-07 21.0132 4.68795e-07 20.801V12.001C-0.000193413 11.8408 0.0597553 11.6842 0.172081 11.5515C0.284407 11.4189 0.443935 11.3163 0.63 11.257L10.63 8.05698C10.7814 8.00866 10.9453 7.99069 11.1074 8.00463C11.2695 8.01857 11.4249 8.06401 11.56 8.13698C11.6957 8.21036 11.8068 8.30929 11.8835 8.42507C11.9603 8.54085 12.0002 8.66994 12 8.80098V10.401H20C20.2652 10.401 20.5196 10.4853 20.7071 10.6353C20.8946 10.7853 21 10.9888 21 11.201V20.801C21 21.0132 20.8946 21.2166 20.7071 21.3667C20.5196 21.5167 20.2652 21.601 20 21.601ZM10 20.001H19V12.001H11C10.7348 12.001 10.4804 11.9167 10.2929 11.7667C10.1054 11.6166 10 11.4132 10 11.201V9.98498L2 12.545V20.001H4V17.601C4 17.3888 4.10536 17.1853 4.29289 17.0353C4.48043 16.8853 4.73478 16.801 5 16.801H9C9.26522 16.801 9.51957 16.8853 9.70711 17.0353C9.89464 17.1853 10 17.3888 10 17.601V20.001Z" fill="currentColor"/>
<path d="M16 13.7461H13C12.7348 13.7461 12.4804 13.6426 12.2929 13.4585C12.1054 13.2744 12 13.0246 12 12.7642C12 12.5038 12.1054 12.2541 12.2929 12.0699C12.4804 11.8858 12.7348 11.7824 13 11.7824H16C16.2652 11.7824 16.5196 11.8858 16.7071 12.0699C16.8946 12.2541 17 12.5038 17 12.7642C17 13.0246 16.8946 13.2744 16.7071 13.4585C16.5196 13.6426 16.2652 13.7461 16 13.7461Z" fill="currentColor"/>
<path d="M9 13.7461H5C4.73478 13.7461 4.48043 13.6426 4.29289 13.4585C4.10536 13.2744 4 13.0246 4 12.7642C4 12.5038 4.10536 12.2541 4.29289 12.0699C4.48043 11.8858 4.73478 11.7824 5 11.7824H9C9.26522 11.7824 9.51957 11.8858 9.70711 12.0699C9.89464 12.2541 10 12.5038 10 12.7642C10 13.0246 9.89464 13.2744 9.70711 13.4585C9.51957 13.6426 9.26522 13.7461 9 13.7461Z" fill="currentColor"/>
<path d="M16 17.6735H13C12.7348 17.6735 12.4804 17.5701 12.2929 17.386C12.1054 17.2018 12 16.9521 12 16.6917C12 16.4313 12.1054 16.1815 12.2929 15.9974C12.4804 15.8133 12.7348 15.7098 13 15.7098H16C16.2652 15.7098 16.5196 15.8133 16.7071 15.9974C16.8946 16.1815 17 16.4313 17 16.6917C17 16.9521 16.8946 17.2018 16.7071 17.386C16.5196 17.5701 16.2652 17.6735 16 17.6735Z" fill="currentColor"/>
<path d="M16 9.81864H15C14.7348 9.81864 14.4804 9.7152 14.2929 9.53106C14.1054 9.34693 14 9.09719 14 8.83678C14 8.57638 14.1054 8.32664 14.2929 8.1425C14.4804 7.95837 14.7348 7.85492 15 7.85492H16C16.2652 7.85492 16.5196 7.95837 16.7071 8.1425C16.8946 8.32664 17 8.57638 17 8.83678C17 9.09719 16.8946 9.34693 16.7071 9.53106C16.5196 9.7152 16.2652 9.81864 16 9.81864Z" fill="currentColor"/>
</svg>