<svg xmlns="http://www.w3.org/2000/svg" width="24" height="32" viewBox="0 0 24 32" fill="currentColor">
<g clip-path="url(#clip0_150_2199)">
<path d="M6.04434 14.0144H9.66384V12.8168C9.66384 12.42 9.96834 12.0952 10.3403 12.0952H13.6643C14.0363 12.0952 14.3408 12.42 14.3408 12.8168V14.0144H17.9588C19.3726 14.0144 21.0338 12.4968 22.0688 11.3216V8.46399C22.0688 7.59039 21.4051 6.88239 20.5861 6.88239H16.6868V5.19279C16.6868 4.15039 15.8911 3.30319 14.9161 3.30319H9.08784C8.11059 3.30319 7.31559 4.15119 7.31559 5.19279V6.88239H3.41634C2.59734 6.88239 1.93359 7.59039 1.93359 8.46399V11.3208C2.97084 12.496 4.63209 14.0144 6.04434 14.0144ZM8.39634 5.19279C8.39634 4.78559 8.70684 4.45439 9.08784 4.45439H14.9161C15.2971 4.45439 15.6076 4.78559 15.6076 5.19279V6.88239H8.39634V5.19279Z" fill="currentColor"/>
<path d="M17.9581 15.1656H14.3401V16.3632C14.3401 16.76 14.0356 17.0856 13.6636 17.0856H10.3396C9.96759 17.0856 9.66309 16.76 9.66309 16.3632V15.1656H6.04359C4.54659 15.1656 3.03159 14.02 1.93359 12.9392V20.7168C1.93359 21.5896 2.59734 22.2976 3.41634 22.2976H20.5876C21.4066 22.2976 22.0703 21.5896 22.0703 20.7168V12.9392C20.9701 14.02 19.4566 15.1656 17.9581 15.1656Z" fill="currentColor"/>
</g>
<defs>
<clipPath id="clip0_150_2199">
<rect width="24" height="32" fill="white"/>
</clipPath>
</defs>
</svg>