<svg xmlns="http://www.w3.org/2000/svg" width="25" height="25" viewBox="0 0 25 25" fill="none">
<path d="M13.6374 25H3.40936C2.50514 25 1.63796 24.6408 0.998577 24.0015C0.359199 23.3622 0 22.4951 0 21.5909V3.40909C0 2.50494 0.359199 1.63783 0.998577 0.998499C1.63796 0.359171 2.50514 0 3.40936 0H13.6374C14.5416 0 15.4088 0.359171 16.0482 0.998499C16.6876 1.63783 17.0468 2.50494 17.0468 3.40909V7.38636C17.0468 7.68775 16.927 7.97679 16.7139 8.18989C16.5008 8.403 16.2117 8.52273 15.9103 8.52273C15.6089 8.52273 15.3199 8.403 15.1067 8.18989C14.8936 7.97679 14.7739 7.68775 14.7739 7.38636V3.40909C14.7739 3.10771 14.6541 2.81867 14.441 2.60556C14.2279 2.39245 13.9388 2.27273 13.6374 2.27273H3.40936C3.10795 2.27273 2.81889 2.39245 2.60576 2.60556C2.39264 2.81867 2.2729 3.10771 2.2729 3.40909V21.5909C2.2729 21.8923 2.39264 22.1813 2.60576 22.3944C2.81889 22.6075 3.10795 22.7273 3.40936 22.7273H13.6374C13.9388 22.7273 14.2279 22.6075 14.441 22.3944C14.6541 22.1813 14.7739 21.8923 14.7739 21.5909V17.6136C14.7739 17.3123 14.8936 17.0232 15.1067 16.8101C15.3199 16.597 15.6089 16.4773 15.9103 16.4773C16.2117 16.4773 16.5008 16.597 16.7139 16.8101C16.927 17.0232 17.0468 17.3123 17.0468 17.6136V21.5909C17.0468 22.4951 16.6876 23.3622 16.0482 24.0015C15.4088 24.6408 14.5416 25 13.6374 25Z" fill="#646464"/>
<path d="M23.2973 13.636H8.42112C8.11971 13.636 7.83065 13.5163 7.61753 13.3032C7.4044 13.0901 7.28467 12.801 7.28467 12.4996C7.28467 12.1983 7.4044 11.9092 7.61753 11.6961C7.83065 11.483 8.11971 11.3633 8.42112 11.3633H23.2973C23.5987 11.3633 23.8877 11.483 24.1009 11.6961C24.314 11.9092 24.4337 12.1983 24.4337 12.4996C24.4337 12.801 24.314 13.0901 24.1009 13.3032C23.8877 13.5163 23.5987 13.636 23.2973 13.636Z" fill="#646464"/>
<path d="M20.4561 17.0456C20.232 17.0446 20.0132 16.9775 19.8272 16.8525C19.6412 16.7276 19.4963 16.5505 19.4106 16.3434C19.325 16.1364 19.3025 15.9086 19.346 15.6888C19.3894 15.469 19.4969 15.267 19.6549 15.1081L22.2574 12.5001L19.6492 9.89214C19.436 9.67892 19.3162 9.38972 19.3162 9.08817C19.3162 8.78662 19.436 8.49742 19.6492 8.28419C19.8625 8.07096 20.1517 7.95117 20.4532 7.95117C20.7548 7.95117 21.044 8.07096 21.2573 8.28419L24.6666 11.6933C24.7723 11.7988 24.8561 11.9241 24.9133 12.0621C24.9705 12.2 24.9999 12.3479 24.9999 12.4973C24.9999 12.6466 24.9705 12.7945 24.9133 12.9324C24.8561 13.0704 24.7723 13.1957 24.6666 13.3012L21.2573 16.7103C21.0451 16.9237 20.757 17.0443 20.4561 17.0456Z" fill="#646464"/>
</svg>