<svg xmlns="http://www.w3.org/2000/svg" width="42" height="42" viewBox="0 0 42 42" fill="none">
<rect x="0.5" y="0.5" width="41" height="41" rx="20.5" fill="#303030" stroke="#646464"/>
<path fill-rule="evenodd" clip-rule="evenodd" d="M22.0764 14.2065L25.7943 17.9245L18.1696 25.5492C17.4623 26.2515 16.4191 26.4949 15.4734 26.1789L15.2154 26.0943L14.2834 27.0263C13.9203 27.3783 13.3419 27.3732 12.9848 27.0161C12.6269 26.6581 12.6226 26.0798 12.9746 25.7167L13.9075 24.7855L13.8212 24.5275H13.822C13.5051 23.5817 13.7494 22.5377 14.4525 21.8304L22.0764 14.2065ZM29.233 10.767C28.2044 9.74435 26.5436 9.74435 25.5151 10.767L24.6625 11.6196L28.3804 15.3375L29.233 14.4849C30.2557 13.4572 30.2557 11.7955 29.233 10.767ZM23.8107 11.6358C23.3365 11.1617 22.5677 11.1617 22.0935 11.6358C21.6185 12.1091 21.6185 12.878 22.0927 13.353L26.6478 17.9073C27.122 18.3815 27.89 18.3815 28.3642 17.9073C28.8383 17.434 28.8383 16.6651 28.3642 16.191L23.8107 11.6358ZM13.4257 28.4334L12.4176 29.4407C12.0101 29.8482 11.8879 30.4607 12.1083 30.993C12.3296 31.5261 12.849 31.8729 13.4257 31.8729C14.0015 31.8729 14.5209 31.5261 14.7422 30.993C14.9626 30.4607 14.8404 29.8482 14.4329 29.4407L13.4257 28.4334Z" fill="white"/>
</svg>