<svg xmlns="http://www.w3.org/2000/svg" width="20" height="20" viewBox="0 0 20 20" fill="currentColor">
<path d="M17.5574 4.35835C16.2157 4.22502 14.8741 4.12502 13.5241 4.05002V4.04169L13.3407 2.95835C13.2157 2.19169 13.0324 1.04169 11.0824 1.04169H8.89907C6.95741 1.04169 6.77407 2.14169 6.64074 2.95002L6.46574 4.01669C5.69074 4.06669 4.91574 4.11669 4.14074 4.19169L2.44074 4.35835C2.09074 4.39169 1.84074 4.70002 1.87407 5.04169C1.90741 5.38335 2.20741 5.63335 2.55741 5.60002L4.25741 5.43335C8.62407 5.00002 13.0241 5.16669 17.4407 5.60835C17.4657 5.60835 17.4824 5.60835 17.5074 5.60835C17.8241 5.60835 18.0991 5.36669 18.1324 5.04169C18.1574 4.70002 17.9074 4.39169 17.5574 4.35835Z" fill="currentColor"/>
<path d="M16.0245 6.78331C15.8245 6.57498 15.5495 6.45831 15.2661 6.45831H4.7328C4.44947 6.45831 4.16613 6.57498 3.97447 6.78331C3.7828 6.99165 3.67447 7.27498 3.69113 7.56665L4.2078 16.1166C4.29947 17.3833 4.41613 18.9666 7.32447 18.9666H12.6745C15.5828 18.9666 15.6995 17.3916 15.7911 16.1166L16.3078 7.57498C16.3245 7.27498 16.2161 6.99165 16.0245 6.78331ZM11.3828 14.7916H8.6078C8.26613 14.7916 7.9828 14.5083 7.9828 14.1666C7.9828 13.825 8.26613 13.5416 8.6078 13.5416H11.3828C11.7245 13.5416 12.0078 13.825 12.0078 14.1666C12.0078 14.5083 11.7245 14.7916 11.3828 14.7916ZM12.0828 11.4583H7.91613C7.57447 11.4583 7.29113 11.175 7.29113 10.8333C7.29113 10.4916 7.57447 10.2083 7.91613 10.2083H12.0828C12.4245 10.2083 12.7078 10.4916 12.7078 10.8333C12.7078 11.175 12.4245 11.4583 12.0828 11.4583Z" fill="currentColor"/>
</svg>