<svg xmlns="http://www.w3.org/2000/svg" width="24" height="24" viewBox="0 0 24 24" fill="none">
<path d="M7.39978 4.36581C7.39978 4.97223 6.49121 4.97223 6.49121 4.36581C6.49121 3.76046 7.39978 3.76046 7.39978 4.36581Z" fill="#646464"/>
<path d="M10.265 4.36581C10.265 4.97223 9.35645 4.97223 9.35645 4.36581C9.35645 3.76046 10.265 3.76046 10.265 4.36581Z" fill="#646464"/>
<path d="M4.0833 3.91016C3.83259 3.91016 3.62793 4.11373 3.62793 4.36443C3.62793 4.61514 3.8315 4.8187 4.0833 4.8187C4.33401 4.8187 4.53757 4.61513 4.53757 4.36443C4.53757 4.11479 4.334 3.91016 4.0833 3.91016Z" fill="#646464"/>
<path d="M12.7654 2.16383H3.32281C2.52782 2.16383 1.88281 2.80884 1.88281 3.60383V6.20312H12.7654V2.16383ZM4.08478 5.54851C3.43228 5.54851 2.90192 5.01815 2.90192 4.36566C2.90192 3.71316 3.43228 3.1828 4.08478 3.1828C4.73727 3.1828 5.26763 3.71316 5.26763 4.36566C5.26763 5.01815 4.73727 5.54851 4.08478 5.54851ZM6.94777 5.54851C6.29527 5.54851 5.76491 5.01815 5.76491 4.36566C5.76491 3.71316 6.29527 3.1828 6.94777 3.1828C7.60027 3.1828 8.13062 3.71316 8.13062 4.36566C8.13062 5.01815 7.60027 5.54851 6.94777 5.54851ZM9.81076 5.54851C9.15826 5.54851 8.6279 5.01815 8.6279 4.36566C8.6279 3.71316 9.15826 3.1828 9.81076 3.1828C10.4633 3.1828 10.9936 3.71316 10.9936 4.36566C10.9936 5.01815 10.4633 5.54851 9.81076 5.54851Z" fill="#646464"/>
<path d="M13.1124 20.6376C12.3507 20.6376 11.7303 20.0183 11.7303 19.2555V17.2798C11.7303 16.518 12.3496 15.8987 13.1124 15.8987H13.6096C13.6889 15.7444 13.7746 15.5933 13.8699 15.4465L13.6224 15.0169C13.4381 14.6976 13.3889 14.3248 13.4842 13.9691C13.5796 13.6123 13.8089 13.3155 14.1292 13.1301L15.8338 12.1466C16.0439 12.0255 16.2817 11.9612 16.5238 11.9612C17.0146 11.9612 17.4731 12.2248 17.7196 12.6501L17.9681 13.0798C18.0549 13.0744 18.1417 13.0712 18.2296 13.0712C18.3174 13.0712 18.4042 13.0744 18.491 13.0798L18.7406 12.6501C18.9871 12.2248 19.4446 11.9612 19.9364 11.9612C20.1785 11.9612 20.4164 12.0255 20.6263 12.1466L20.8546 12.2784V10.2512L14.2289 10.2523C13.4211 10.2523 12.7654 9.59552 12.7654 8.78873V6.93196H1.88281V13.0455H8.50626C9.31411 13.0455 9.97198 13.7034 9.97198 14.5112V21.1347H13.8441L13.8698 21.0897C13.7755 20.944 13.6876 20.7918 13.6094 20.6375L13.1124 20.6376Z" fill="#646464"/>
<path d="M7.59889 16.7214C7.59889 17.7821 6.00781 17.7821 6.00781 16.7214C6.00781 15.6607 7.59889 15.6607 7.59889 16.7214Z" fill="#646464"/>
<path d="M8.50271 13.7761H0.737142C0.325714 13.7761 0 14.1018 0 14.5047V17.4949C0.510006 17.2421 1.05106 17.1071 1.61464 17.1071C2.65607 17.1071 3.75856 17.5464 4.8032 18.3767C4.97463 18.516 5.13964 18.6574 5.30356 18.7978C5.95712 19.3571 6.57427 19.8853 7.31034 20.0267C7.41855 20.046 7.53427 20.0556 7.64785 20.0556C8.12143 20.0556 8.59284 19.881 9.01286 19.5499L9.23785 19.3721V14.5131C9.24 14.1017 8.91414 13.7761 8.50271 13.7761ZM6.80343 18.2461C5.96343 18.2461 5.27986 17.5626 5.27986 16.7226C5.27986 15.8815 5.96343 15.199 6.80343 15.199C7.6445 15.199 8.32701 15.8826 8.32701 16.7226C8.32808 17.5626 7.64343 18.2461 6.80343 18.2461Z" fill="#646464"/>
<path d="M14.2291 9.52343H22.0012C22.4073 9.52343 22.7362 9.1945 22.7362 8.78842V1.01847C22.7362 0.611319 22.4062 0.281326 21.9991 0.281326H14.2291C13.8231 0.281326 13.4941 0.610249 13.4941 1.01633V8.78848C13.4941 9.19456 13.823 9.52343 14.2291 9.52343ZM16.4009 3.20636C16.4009 2.90207 16.5691 2.62671 16.8402 2.4885C17.1123 2.34922 17.4338 2.37493 17.6802 2.55386L20.018 4.24993C20.2259 4.401 20.3502 4.64421 20.3502 4.90242C20.3502 5.15957 20.2259 5.40385 20.018 5.55599L17.6802 7.25206C17.5398 7.35385 17.3737 7.40635 17.2066 7.40635C17.0812 7.40635 16.9559 7.37742 16.8402 7.31849C16.5691 7.17921 16.4009 6.90492 16.4009 6.60063V3.20636Z" fill="#646464"/>
<path d="M19.589 4.96448V4.83912L17.2511 3.14305L17.1279 3.20626V6.59835L17.2511 6.66156L19.589 4.96448Z" fill="#646464"/>
<path d="M18.2303 15.9877C16.9724 15.9877 15.9492 17.011 15.9492 18.2688C15.9492 19.5267 16.9724 20.5499 18.2303 20.5499C19.4881 20.5499 20.5114 19.5267 20.5114 18.2688C20.5114 17.012 19.4881 15.9877 18.2303 15.9877Z" fill="#646464"/>
<path d="M23.3481 16.6284H22.3817C22.2209 16.2159 21.9981 15.8334 21.726 15.4906L22.027 14.9709C22.0313 14.9624 22.0356 14.9549 22.0388 14.9463L22.207 14.6538C22.387 14.342 22.2799 13.9424 21.9681 13.7624L21.6756 13.5942L20.2613 12.7777C19.9496 12.5977 19.551 12.7038 19.3699 13.0156L18.8846 13.8534C18.6703 13.8245 18.4517 13.7999 18.2289 13.7999C18.006 13.7999 17.7874 13.8245 17.5732 13.8534L17.0878 13.0156C16.9067 12.7049 16.5082 12.5977 16.1964 12.7777L14.7821 13.5942L14.4896 13.7624C14.1778 13.9424 14.0707 14.342 14.2507 14.6538L14.4189 14.9463L14.7317 15.4906C14.4596 15.8324 14.2367 16.2159 14.076 16.6284H13.1096C12.7486 16.6284 12.4561 16.9209 12.4561 17.282V19.2577C12.4561 19.6188 12.7486 19.9113 13.1096 19.9113H14.076C14.2368 20.3238 14.4596 20.7063 14.7317 21.0491L14.4307 21.5688C14.4264 21.5773 14.4221 21.5848 14.4189 21.5934L14.2507 21.8859C14.0707 22.1977 14.1778 22.5973 14.4896 22.7773L14.7821 22.9455L16.1964 23.762C16.5081 23.942 16.9067 23.8359 17.0878 23.5241L17.5731 22.6863C17.7874 22.7152 18.006 22.7398 18.2288 22.7398C18.4517 22.7398 18.6703 22.7152 18.8845 22.6863L19.3699 23.5241C19.551 23.8348 19.9495 23.942 20.2613 23.762L21.6756 22.9455L21.9681 22.7773C22.2799 22.5973 22.387 22.1977 22.207 21.8859L22.0388 21.5934L21.726 21.0491C21.9981 20.7073 22.221 20.3238 22.3817 19.9113H23.3481C23.7091 19.9113 24.0016 19.6188 24.0016 19.2577V17.282C24.0016 16.9209 23.7091 16.6284 23.3481 16.6284ZM18.231 21.2784C16.5714 21.2784 15.2224 19.9284 15.2224 18.2686C15.2224 16.609 16.5724 15.26 18.231 15.26C19.8907 15.26 21.2407 16.61 21.2407 18.2686C21.2397 19.9283 19.8907 21.2784 18.231 21.2784Z" fill="#646464"/>
<path d="M7.18069 20.7446C6.24856 20.5667 5.52749 19.9496 4.82999 19.3528C4.67034 19.2168 4.51069 19.0785 4.34678 18.9457C3.43607 18.2203 2.48893 17.8367 1.61465 17.8367C1.11109 17.8367 0.62785 17.9642 0.177858 18.2171L0 18.3178V22.2799C0 22.6913 0.334299 23.017 0.737142 23.017H8.50271C8.91414 23.017 9.23985 22.6913 9.23985 22.2799V20.2752C8.74592 20.6031 8.2038 20.7852 7.64878 20.7852C7.49342 20.7841 7.33712 20.7703 7.18069 20.7446Z" fill="#646464"/>
</svg>