<svg xmlns="http://www.w3.org/2000/svg" width="26" height="18" viewBox="0 0 26 18" fill="currentColor">
<path d="M10.1205 1.20418C9.90256 0.986238 9.60687 0.863647 9.29869 0.863647H1.16234C0.520441 0.863647 0 1.38409 0 2.02598V15.974C0 16.6159 0.520441 17.1364 1.16234 17.1364H11.6234C12.2653 17.1364 12.7857 16.6159 12.7857 15.974V4.35066C12.7857 4.04248 12.6631 3.74679 12.4452 3.52885L10.1205 1.20418ZM9.97975 4.35066H9.29869V3.6696L9.97975 4.35066ZM10.461 14.8117H2.32467V3.18832H6.97402V5.51299C6.97402 6.15489 7.49446 6.67533 8.13636 6.67533H10.461V14.8117Z" fill="currentColor"/>
<path d="M4.65062 7.83743C4.00872 7.83743 3.48828 8.35787 3.48828 8.99977C3.48828 9.64167 4.00872 10.1621 4.65062 10.1621H8.13763C8.77952 10.1621 9.29996 9.64167 9.29996 8.99977C9.29996 8.35787 8.77952 7.83743 8.13763 7.83743H4.65062Z" fill="currentColor"/>
<path d="M8.13763 11.3248H4.65062C4.00872 11.3248 3.48828 11.8452 3.48828 12.4871C3.48828 13.129 4.00872 13.6495 4.65062 13.6495H8.13763C8.77952 13.6495 9.29996 13.129 9.29996 12.4871C9.29996 11.8452 8.77952 11.3248 8.13763 11.3248Z" fill="currentColor"/>
<path d="M24.4105 4.351H18.5989C17.957 4.351 17.4365 4.87144 17.4365 5.51333C17.4365 6.15523 17.957 6.67567 18.5989 6.67567H24.4105C25.0524 6.67567 25.5729 6.15523 25.5729 5.51333C25.5729 4.87144 25.0524 4.351 24.4105 4.351Z" fill="currentColor"/>
<path d="M24.4105 7.83743H18.5989C17.957 7.83743 17.4365 8.35787 17.4365 8.99977C17.4365 9.64167 17.957 10.1621 18.5989 10.1621H24.4105C25.0524 10.1621 25.5729 9.64167 25.5729 8.99977C25.5729 8.35787 25.0524 7.83743 24.4105 7.83743Z" fill="currentColor"/>
<path d="M24.4105 11.3248H18.5989C17.957 11.3248 17.4365 11.8452 17.4365 12.4871C17.4365 13.129 17.957 13.6495 18.5989 13.6495H24.4105C25.0524 13.6495 25.5729 13.129 25.5729 12.4871C25.5729 11.8452 25.0524 11.3248 24.4105 11.3248Z" fill="currentColor"/>
<path d="M15.1124 4.351H15.1011C14.4608 4.351 13.9473 4.87144 13.9473 5.51333C13.9473 6.15523 14.4721 6.67567 15.1124 6.67567C15.7533 6.67567 16.2719 6.15523 16.2719 5.51333C16.2719 4.87144 15.7533 4.351 15.1124 4.351Z" fill="currentColor"/>
<path d="M15.1124 7.83743H15.1011C14.4608 7.83743 13.9473 8.35787 13.9473 8.99977C13.9473 9.64167 14.4721 10.1621 15.1124 10.1621C15.7533 10.1621 16.2719 9.64167 16.2719 8.99977C16.2719 8.35787 15.7533 7.83743 15.1124 7.83743Z" fill="currentColor"/>
<path d="M15.1124 11.3248H15.1011C14.4608 11.3248 13.9473 11.8452 13.9473 12.4871C13.9473 13.129 14.4721 13.6495 15.1124 13.6495C15.7533 13.6495 16.2719 13.129 16.2719 12.4871C16.2719 11.8452 15.7533 11.3248 15.1124 11.3248Z" fill="currentColor"/>
</svg>