<svg xmlns="http://www.w3.org/2000/svg" width="16" height="17" viewBox="0 0 16 17" fill="none">
<path d="M5.07725 5.63499L4.39844 5.68671L5.07417 14.455L5.75298 14.4033L5.07725 5.63499Z" fill="white"/>
<path d="M8.34485 5.66049H7.66406V14.4285H8.34485V5.66049Z" fill="white"/>
<path d="M10.9161 5.6351L10.2422 14.4033L10.921 14.4549L11.595 5.68668L10.9161 5.6351Z" fill="white"/>
<path d="M14.9999 2.44899H13.2307V0.986819C13.2307 0.464278 12.8032 0.0389099 12.2777 0.0389099H3.72215C3.19658 0.0389099 2.7691 0.464278 2.7691 0.986819V2.44899H0.999922H0V3.12586H1.08428L2.63811 15.5931C2.73536 16.3731 3.40485 16.9611 4.19533 16.9611H11.8045C12.595 16.9611 13.2645 16.3731 13.3617 15.5931L14.9155 3.1259H16V2.44899H14.9999ZM3.44989 0.986819C3.44989 0.837433 3.57207 0.715787 3.72215 0.715787H12.2777C12.4278 0.715787 12.5499 0.837399 12.5499 0.986819V2.44899H3.44989V0.986819ZM12.6862 15.5098C12.631 15.9514 12.2521 16.2842 11.8045 16.2842H4.19533C3.74773 16.2842 3.36875 15.9514 3.31358 15.5098L1.77015 3.1259H2.76907H13.2307H14.2296L12.6862 15.5098Z" fill="white"/>
</svg>