<svg xmlns="http://www.w3.org/2000/svg" width="16" height="17" viewBox="0 0 16 17" fill="none">
<path fill-rule="evenodd" clip-rule="evenodd" d="M7.27779 0.752195C7.27779 -0.198852 8.72262 -0.198852 8.72262 0.752195V9.30035L10.2478 7.77517C10.9202 7.10273 11.9418 8.12432 11.2694 8.79675L8.511 11.5551C8.22884 11.8373 7.77137 11.8373 7.48942 11.5551L4.73082 8.79655C4.05838 8.12411 5.07997 7.10253 5.7524 7.77496L7.27779 9.30035V0.752195ZM14.5554 8.02978V13.4923C14.5554 14.0917 14.062 14.5851 13.4626 14.5851H2.53759C1.93799 14.5851 1.44483 14.0917 1.44483 13.4923V8.02978C1.44483 7.07873 0 7.07873 0 8.02978V13.4923C0 14.8898 1.14055 16.0299 2.53759 16.0299H13.4624C14.8599 16.0299 16 14.8893 16 13.4923V8.02978C16.0002 7.07873 14.5554 7.07873 14.5554 8.02978Z" fill="white"/>
</svg>