<svg xmlns="http://www.w3.org/2000/svg" width="24" height="25" viewBox="0 0 24 25" fill="currentColor">
<path d="M14.6701 5.02721C14.6701 4.04586 14.3535 3.08656 13.7603 2.27059C13.1671 1.45463 12.3239 0.81867 11.3375 0.443125C10.351 0.0675796 9.26557 -0.0306803 8.21837 0.160771C7.17116 0.352223 6.20923 0.824786 5.45424 1.5187C4.69924 2.21262 4.18508 3.09673 3.97678 4.05922C3.76848 5.02171 3.87539 6.01936 4.28399 6.926C4.69259 7.83265 5.38453 8.60757 6.27231 9.15278C7.16009 9.69799 8.20384 9.98899 9.27156 9.98899C10.7033 9.98899 12.0765 9.46624 13.0889 8.53572C14.1013 7.60521 14.6701 6.34316 14.6701 5.02721ZM5.66277 5.02721C5.6628 4.36473 5.87693 3.71718 6.27801 3.16672C6.67908 2.61626 7.24902 2.18771 7.91551 1.93544C8.58201 1.68317 9.31501 1.61854 10.0215 1.74976C10.728 1.88099 11.3762 2.20214 11.8838 2.67248C12.3915 3.14283 12.7356 3.74115 12.8727 4.39156C13.0097 5.04196 12.9335 5.71512 12.6536 6.32563C12.3737 6.93614 11.9029 7.45648 11.3007 7.82064C10.6986 8.1848 9.99234 8.37636 9.27156 8.37102C8.31176 8.36391 7.39391 8.00848 6.71796 7.38216C6.04201 6.75584 5.66274 5.90939 5.66277 5.02721Z" fill="currentColor"/>
<path d="M16.7527 15.1395C16.2594 15.1395 15.7773 15.274 15.3671 15.5258C14.957 15.7777 14.6374 16.1357 14.4486 16.5545C14.2599 16.9733 14.2105 17.4342 14.3067 17.8788C14.4029 18.3235 14.6405 18.7319 14.9892 19.0524C15.338 19.373 15.7824 19.5913 16.2661 19.6797C16.7499 19.7682 17.2513 19.7228 17.707 19.5493C18.1627 19.3758 18.5522 19.082 18.8263 18.7051C19.1003 18.3282 19.2465 17.885 19.2465 17.4317C19.2465 16.8237 18.9838 16.2407 18.5161 15.8109C18.0484 15.381 17.4141 15.1395 16.7527 15.1395ZM16.7527 18.1058C16.6076 18.1058 16.4658 18.0663 16.3452 17.9922C16.2245 17.9181 16.1305 17.8128 16.075 17.6896C16.0195 17.5665 16.005 17.4309 16.0333 17.3001C16.0616 17.1694 16.1314 17.0492 16.234 16.955C16.3366 16.8607 16.4673 16.7965 16.6096 16.7705C16.7519 16.7444 16.8993 16.7578 17.0334 16.8088C17.1674 16.8598 17.282 16.9462 17.3625 17.0571C17.4431 17.168 17.4862 17.2983 17.4862 17.4317C17.4862 17.6105 17.4089 17.7819 17.2713 17.9084C17.1338 18.0348 16.9472 18.1058 16.7527 18.1058Z" fill="currentColor"/>
<path d="M23.2077 15.8946L22.0342 15.7058C21.9671 15.5221 21.8888 15.342 21.7994 15.1665L22.4742 14.2766C22.5989 14.1206 22.6585 13.9287 22.6424 13.7358C22.6262 13.5428 22.5353 13.3616 22.3862 13.2249L21.2713 12.2002C21.1227 12.0632 20.9255 11.9797 20.7155 11.9648C20.5056 11.95 20.2968 12.0048 20.1271 12.1193L19.1589 12.7395L18.5721 12.5238L18.3667 11.4452C18.3317 11.2547 18.2237 11.0821 18.0623 10.9584C17.9008 10.8348 17.6966 10.7683 17.4865 10.771H15.9608C15.7507 10.7683 15.5465 10.8348 15.385 10.9584C15.2236 11.0821 15.1156 11.2547 15.0806 11.4452L14.9633 12.1193C13.6179 11.2914 12.0348 10.8502 10.4156 10.8519H8.15645C5.99053 10.859 3.91597 11.6549 2.38718 13.065C0.858387 14.4752 -1.39124e-05 16.3848 1.69114e-10 18.3755V19.7238C1.69114e-10 19.9009 0.0379449 20.0762 0.111668 20.2398C0.185391 20.4034 0.293448 20.552 0.429671 20.6772C0.565893 20.8024 0.727613 20.9017 0.905596 20.9695C1.08358 21.0372 1.27434 21.0721 1.46699 21.0721H10.8557C10.8665 21.2761 10.9608 21.4687 11.1198 21.6114L12.2347 22.6361C12.3833 22.7732 12.5805 22.8567 12.7905 22.8716C13.0004 22.8864 13.2092 22.8316 13.3789 22.717L14.3471 22.0968L14.9339 22.3125L15.1393 23.3912C15.1743 23.5816 15.2823 23.7543 15.4437 23.8779C15.6052 24.0016 15.8094 24.068 16.0195 24.0654H17.5452C17.7553 24.068 17.9595 24.0016 18.121 23.8779C18.2824 23.7543 18.3904 23.5816 18.4254 23.3912L18.6307 22.3125L19.2175 22.0968L20.1857 22.717C20.3555 22.8316 20.5642 22.8864 20.7742 22.8716C20.9841 22.8567 21.1813 22.7732 21.33 22.6361L22.4449 21.6114C22.594 21.4748 22.6849 21.2935 22.701 21.1006C22.7172 20.9076 22.6575 20.7157 22.5329 20.5597L21.8581 19.6699C21.9473 19.4943 22.0257 19.3142 22.0928 19.1305L23.2664 18.9418C23.4736 18.9096 23.6615 18.8104 23.796 18.662C23.9305 18.5136 24.0029 18.3259 23.9999 18.1328V16.7036C24.001 16.5023 23.9205 16.3079 23.774 16.1583C23.6275 16.0088 23.4256 15.9147 23.2077 15.8946ZM1.76038 18.3755C1.76037 16.8139 2.4333 15.3158 3.63196 14.2091C4.83062 13.1024 6.45742 12.477 8.15645 12.4699H10.4156C10.8694 12.4707 11.3218 12.5159 11.7652 12.6047L11.0904 13.2519C10.9413 13.3885 10.8504 13.5698 10.8343 13.7627C10.8181 13.9557 10.8778 14.1476 11.0024 14.3036L11.6772 15.1665C11.5879 15.3421 11.5096 15.5221 11.4425 15.7058L10.2689 15.8946C10.0617 15.9268 9.87387 16.026 9.73934 16.1744C9.60482 16.3227 9.53248 16.5105 9.53542 16.7036V18.1598C9.53248 18.3529 9.60482 18.5406 9.73934 18.689C9.87387 18.8373 10.0617 18.9366 10.2689 18.9687L11.4425 19.1575L11.5599 19.4811H1.76038V18.3755ZM22.1809 17.4586L21.2126 17.6204C21.0418 17.6485 20.8838 17.7224 20.7586 17.8327C20.6333 17.9431 20.5463 18.085 20.5085 18.2407C20.4178 18.6215 20.2592 18.986 20.039 19.3193C19.9487 19.454 19.9033 19.6101 19.9086 19.7683C19.9138 19.9265 19.9693 20.0797 20.0684 20.2092L20.6552 20.9373L20.5965 20.9912L19.8043 20.4519C19.6635 20.3608 19.4967 20.3098 19.3246 20.305C19.1525 20.3002 18.9827 20.3419 18.8361 20.4249C18.4738 20.6277 18.0771 20.7735 17.6625 20.8564C17.4837 20.888 17.3199 20.9698 17.1938 21.0905C17.0677 21.2113 16.9854 21.365 16.9584 21.5305L16.7823 22.4204H16.6943L16.5183 21.5305C16.4877 21.3735 16.4074 21.2283 16.2873 21.1132C16.1672 20.998 16.0128 20.9181 15.8435 20.8833C15.4289 20.8005 15.0322 20.6547 14.6699 20.4519C14.5233 20.3688 14.3535 20.3271 14.1814 20.3319C14.0093 20.3367 13.8425 20.3878 13.7017 20.4788L12.9095 21.0182L12.8508 20.9642L13.4376 20.2362C13.5367 20.1067 13.5922 19.9534 13.5974 19.7953C13.6027 19.6371 13.5573 19.481 13.4669 19.3463C13.2463 19.0132 13.0876 18.6487 12.9975 18.2676C12.9631 18.1033 12.8741 17.9527 12.7427 17.8368C12.6114 17.7209 12.4441 17.6453 12.264 17.6204L11.2958 17.4586V17.3777L12.264 17.2159C12.4348 17.1879 12.5928 17.114 12.7181 17.0037C12.8434 16.8933 12.9304 16.7514 12.9682 16.5957C13.0583 16.2147 13.2169 15.8501 13.4376 15.5171C13.5279 15.3824 13.5733 15.2263 13.5681 15.0681C13.5629 14.9099 13.5073 14.7566 13.4083 14.6272L12.8215 13.8991L12.8801 13.8452L13.6723 14.3845C13.8132 14.4755 13.9799 14.5266 14.152 14.5314C14.3241 14.5362 14.494 14.4945 14.6405 14.4115C15.0034 14.2095 15.3999 14.0638 15.8141 13.98C15.9835 13.9453 16.1379 13.8653 16.258 13.7502C16.378 13.635 16.4584 13.4898 16.4889 13.3328L16.665 12.4429H16.753L16.929 13.3328C16.9668 13.4885 17.0538 13.6304 17.1791 13.7407C17.3044 13.8511 17.4624 13.925 17.6332 13.953C18.0476 14.0363 18.4442 14.1821 18.8068 14.3845C18.9533 14.4675 19.1232 14.5092 19.2953 14.5044C19.4674 14.4996 19.6342 14.4486 19.775 14.3575L20.5672 13.8182L20.6258 13.8721L20.039 14.6002C19.94 14.7296 19.8844 14.8829 19.8792 15.0411C19.874 15.1993 19.9194 15.3554 20.0097 15.4901C20.2304 15.8231 20.389 16.1877 20.4791 16.5687C20.5169 16.7244 20.6039 16.8663 20.7292 16.9767C20.8545 17.087 21.0125 17.1609 21.1833 17.189L22.1515 17.3508L22.1809 17.4586Z" fill="currentColor"/>
</svg>