<svg xmlns="http://www.w3.org/2000/svg" width="23" height="24" viewBox="0 0 23 24" fill="currentColor">
<path d="M10.2324 5.68176V13.3328H15.3253V10.7981H12.7671V5.68176H10.2324Z" fill="currentColor"/>
<path d="M19.6204 3.94502C17.5551 1.85625 14.6684 0.56543 11.5 0.56543C8.07347 0.56543 4.9051 2.09094 2.74592 4.60216L0 1.83278V9.50727H7.67449L4.57653 6.40931C6.24286 4.36747 8.77755 3.12359 11.5 3.12359C13.9643 3.12359 16.1939 4.13278 17.8133 5.75216C19.4327 7.37155 20.4418 9.60114 20.4418 12.0654C20.4418 16.994 16.4286 21.0073 11.5 21.0073C9.05918 21.0073 6.82959 20.0216 5.18674 18.3787L3.37959 20.1858C5.49184 22.2981 8.37857 23.5654 11.5 23.5654C17.8367 23.5654 23 18.4022 23 12.0654C23 8.89706 21.7092 6.01033 19.6204 3.94502Z" fill="currentColor"/>
</svg>