<svg xmlns="http://www.w3.org/2000/svg" width="32" height="33" viewBox="0 0 32 33" fill="none">
<rect width="32" height="32" transform="translate(0 0.5)" fill="white" fill-opacity="0.01"/>
<path d="M29 23.4994V7.5C28.9994 6.96975 28.7885 6.46139 28.4136 6.08644C28.0386 5.7115 27.5303 5.5006 27 5.5H5C4.46975 5.5006 3.96139 5.7115 3.58644 6.08644C3.2115 6.46139 3.0006 6.96975 3 7.5V25.5C3.0006 26.0303 3.2115 26.5386 3.58644 26.9136C3.96139 27.2885 4.46975 27.4994 5 27.5H27C27.5303 27.4994 28.0386 27.2885 28.4136 26.9136C28.7885 26.5386 28.9994 26.0303 29 25.5V23.4994ZM27 7.5L27.001 21.0866L23.4142 17.5C23.0389 17.1255 22.5303 16.9152 22 16.9152C21.4697 16.9152 20.9611 17.1255 20.5858 17.5L18.0001 20.0859L12.4143 14.5C12.0389 14.1255 11.5303 13.9152 11 13.9152C10.4697 13.9152 9.96113 14.1255 9.58575 14.5L5 19.0858V7.5H27ZM27 25.5H5V21.9142L11 15.9143L16.5858 21.5C16.9609 21.875 17.4696 22.0857 18 22.0857C18.5304 22.0857 19.0391 21.875 19.4142 21.5L22 18.9142L27.0012 23.9155V25.5H27ZM18.4393 14.0606C18.2648 13.8862 18.1361 13.6714 18.0646 13.4354C17.993 13.1993 17.9807 12.9493 18.0288 12.7073C18.077 12.4654 18.184 12.2391 18.3405 12.0484C18.497 11.8577 18.6981 11.7086 18.926 11.6142C19.1539 11.5198 19.4016 11.4831 19.647 11.5073C19.8925 11.5315 20.1282 11.6158 20.3333 11.7528C20.5384 11.8899 20.7066 12.0754 20.8229 12.2929C20.9391 12.5105 21 12.7533 21 13V13.0005C20.9999 13.2971 20.9119 13.5871 20.747 13.8337C20.5821 14.0803 20.3478 14.2725 20.0738 14.386C19.7997 14.4995 19.4981 14.5291 19.2072 14.4712C18.9162 14.4133 18.649 14.2704 18.4393 14.0606Z" fill="#C9C9C9"/>
</svg>