<svg xmlns="http://www.w3.org/2000/svg" width="35" height="35" viewBox="0 0 35 35" fill="none">
<path d="M17.7876 21.5078C20.1348 21.5078 22.0376 19.605 22.0376 17.2578C22.0376 14.9106 20.1348 13.0078 17.7876 13.0078C15.4404 13.0078 13.5376 14.9106 13.5376 17.2578C13.5376 19.605 15.4404 21.5078 17.7876 21.5078Z" stroke="#0096A4" stroke-width="1.5" stroke-miterlimit="10" stroke-linecap="round" stroke-linejoin="round"/>
<path d="M3.62085 18.5042V16.0109C3.62085 14.5375 4.82502 13.3192 6.31252 13.3192C8.87668 13.3192 9.92502 11.5059 8.63585 9.28169C7.89918 8.00669 8.33835 6.34919 9.62752 5.61252L12.0783 4.21002C13.1975 3.54419 14.6425 3.94085 15.3083 5.06002L15.4642 5.32919C16.7392 7.55335 18.8358 7.55335 20.125 5.32919L20.2808 5.06002C20.9467 3.94085 22.3917 3.54419 23.5109 4.21002L25.9617 5.61252C27.2508 6.34919 27.69 8.00669 26.9533 9.28169C25.6642 11.5059 26.7125 13.3192 29.2767 13.3192C30.75 13.3192 31.9683 14.5234 31.9683 16.0109V18.5042C31.9683 19.9775 30.7642 21.1959 29.2767 21.1959C26.7125 21.1959 25.6642 23.0092 26.9533 25.2334C27.69 26.5225 27.2508 28.1659 25.9617 28.9025L23.5109 30.305C22.3917 30.9709 20.9467 30.5742 20.2808 29.455L20.125 29.1859C18.85 26.9617 16.7533 26.9617 15.4642 29.1859L15.3083 29.455C14.6425 30.5742 13.1975 30.9709 12.0783 30.305L9.62752 28.9025C8.33835 28.1659 7.89918 26.5084 8.63585 25.2334C9.92502 23.0092 8.87668 21.1959 6.31252 21.1959C4.82502 21.1959 3.62085 19.9775 3.62085 18.5042Z" stroke="#0096A4" stroke-width="1.5" stroke-miterlimit="10" stroke-linecap="round" stroke-linejoin="round"/>
</svg>