<svg xmlns="http://www.w3.org/2000/svg" width="30" height="32" viewBox="0 0 30 32" fill="none">
<path d="M9.99842 11.0645L8.76807 11.1582L9.99283 27.0507L11.2232 26.957L9.99842 11.0645Z" fill="#0096A4"/>
<path d="M15.9043 11.1113H14.6704V27.0034H15.9043V11.1113Z" fill="#0096A4"/>
<path d="M20.5755 11.0646L19.354 26.957L20.5844 27.0505L21.8059 11.1581L20.5755 11.0646Z" fill="#0096A4"/>
<path d="M27.9749 5.29014H24.7683V2.63996C24.7683 1.69285 23.9935 0.921875 23.0409 0.921875H7.53399C6.58141 0.921875 5.8066 1.69285 5.8066 2.63996V5.29014H2.59996H0.787598V6.51698H2.75285L5.56917 29.1139C5.74544 30.5276 6.95888 31.5933 8.39163 31.5933H22.1832C23.616 31.5933 24.8295 30.5276 25.0057 29.1139L27.822 6.51704H29.7876V5.29014H27.9749ZM7.04053 2.63996C7.04053 2.3692 7.26197 2.14871 7.53399 2.14871H23.0409C23.3129 2.14871 23.5344 2.36914 23.5344 2.63996V5.29014H7.04053V2.63996ZM23.7814 28.9629C23.6814 29.7632 22.9945 30.3665 22.1832 30.3665H8.39163C7.58036 30.3665 6.89346 29.7632 6.79345 28.9629L3.99599 6.51704H5.80653H24.7683H26.5788L23.7814 28.9629Z" fill="#0096A4"/>
</svg>