<svg xmlns="http://www.w3.org/2000/svg" width="22" height="20" viewBox="0 0 22 20" fill="currentColor">
<path d="M10.1952 5.14435C10.1952 5.31251 10.1843 5.48068 10.1624 5.64885C10.1733 5.56931 10.1843 5.4875 10.193 5.40796C10.1493 5.73293 10.0662 6.04881 9.94595 6.35106C9.97437 6.27834 10.005 6.20562 10.0334 6.1329C9.91316 6.42833 9.75793 6.7033 9.57209 6.95782C9.618 6.89647 9.66392 6.83511 9.70983 6.77375C9.51743 7.03282 9.29443 7.26462 9.04519 7.4646C9.10422 7.41687 9.16325 7.36915 9.22228 7.32143C8.97741 7.51459 8.71068 7.67594 8.42865 7.80093C8.49861 7.77139 8.56857 7.73957 8.63854 7.71003C8.34776 7.83502 8.04386 7.92138 7.73122 7.96683C7.80774 7.95546 7.88644 7.9441 7.96296 7.93501C7.63939 7.97819 7.31582 7.97819 6.99224 7.93501C7.06876 7.94637 7.14747 7.95774 7.22399 7.96683C6.91135 7.92138 6.60745 7.83502 6.31667 7.71003C6.38663 7.73957 6.45659 7.77139 6.52656 7.80093C6.24234 7.67594 5.97779 7.51459 5.73293 7.32143C5.79196 7.36915 5.85099 7.41687 5.91002 7.4646C5.66078 7.26462 5.43777 7.03282 5.24538 6.77375C5.29129 6.83511 5.3372 6.89647 5.38312 6.95782C5.19728 6.7033 5.04205 6.42605 4.9218 6.1329C4.95023 6.20562 4.98083 6.27834 5.00926 6.35106C4.88901 6.04881 4.80593 5.73293 4.7622 5.40796C4.77313 5.4875 4.78407 5.56931 4.79281 5.64885C4.75127 5.31251 4.75127 4.97618 4.79281 4.63985C4.78188 4.71938 4.77095 4.8012 4.7622 4.88073C4.80593 4.55576 4.88901 4.23988 5.00926 3.93763C4.98083 4.01036 4.95023 4.08308 4.9218 4.1558C5.04205 3.86037 5.19728 3.58539 5.38312 3.33087C5.3372 3.39223 5.29129 3.45359 5.24538 3.51494C5.43777 3.25588 5.66078 3.02408 5.91002 2.8241C5.85099 2.87182 5.79196 2.91954 5.73293 2.96727C5.97779 2.7741 6.24452 2.61275 6.52656 2.48776C6.45659 2.5173 6.38663 2.54912 6.31667 2.57866C6.60745 2.45367 6.91135 2.36732 7.22399 2.32187C7.14747 2.33323 7.06876 2.34459 6.99224 2.35368C7.31582 2.3105 7.63939 2.3105 7.96296 2.35368C7.88644 2.34232 7.80774 2.33096 7.73122 2.32187C8.04386 2.36732 8.34776 2.45367 8.63854 2.57866C8.56857 2.54912 8.49861 2.5173 8.42865 2.48776C8.71287 2.61275 8.97741 2.7741 9.22228 2.96727C9.16325 2.91954 9.10422 2.87182 9.04519 2.8241C9.29443 3.02408 9.51743 3.25588 9.70983 3.51494C9.66392 3.45359 9.618 3.39223 9.57209 3.33087C9.75793 3.58539 9.91316 3.86264 10.0334 4.1558C10.005 4.08308 9.97437 4.01036 9.94595 3.93763C10.0662 4.23988 10.1493 4.55576 10.193 4.88073C10.1821 4.8012 10.1711 4.71938 10.1624 4.63985C10.1843 4.80574 10.1952 4.97391 10.1952 5.14435C10.1974 5.61931 10.5953 6.07608 11.0697 6.05336C11.542 6.03063 11.9464 5.65339 11.9442 5.14435C11.9399 4.21716 11.6753 3.26497 11.1506 2.50821C10.8489 2.07189 10.5144 1.71737 10.1034 1.39468C9.75355 1.1197 9.3622 0.919717 8.95118 0.762913C7.26553 0.117515 5.21477 0.692465 4.0757 2.13552C3.92047 2.33323 3.76962 2.53776 3.64062 2.75819C3.50726 2.98999 3.40232 3.23542 3.30612 3.4854C3.13559 3.91945 3.05469 4.37851 3.01753 4.84437C2.94538 5.76929 3.17931 6.73966 3.64062 7.53277C4.08882 8.30316 4.76658 8.96901 5.56021 9.33943C5.78758 9.44624 6.02152 9.54623 6.26201 9.61668C6.52 9.69168 6.78236 9.73031 7.04909 9.7644C7.50384 9.82121 7.96515 9.77803 8.41334 9.68486C9.26601 9.5076 10.0837 9.02582 10.6849 8.37588C11.2927 7.71912 11.7387 6.85783 11.8721 5.95109C11.9114 5.68294 11.9442 5.41478 11.9442 5.14435C11.9464 4.66939 11.5398 4.21261 11.0697 4.23534C10.5953 4.25579 10.1974 4.63303 10.1952 5.14435Z" fill="currentColor"/>
<path d="M17.7444 6.6327C17.7444 6.7486 17.7357 6.8645 17.7226 6.97813C17.7335 6.89859 17.7444 6.81678 17.7532 6.73724C17.7226 6.95086 17.6701 7.15766 17.5914 7.35537C17.6198 7.28265 17.6504 7.20993 17.6788 7.13721C17.5958 7.33946 17.4908 7.53035 17.3618 7.70534C17.4077 7.64398 17.4537 7.58262 17.4996 7.52126C17.3706 7.69398 17.2219 7.84851 17.0557 7.98259C17.1148 7.93486 17.1738 7.88714 17.2328 7.83942C17.0645 7.9735 16.8808 8.08258 16.6863 8.16893C16.7562 8.13939 16.8262 8.10758 16.8961 8.07803C16.7037 8.15984 16.5048 8.21438 16.3015 8.2462C16.378 8.23484 16.4567 8.22347 16.5332 8.21438C16.3124 8.24393 16.0894 8.24393 15.8664 8.21438C15.9429 8.22575 16.0216 8.23711 16.0981 8.2462C15.8926 8.21438 15.6937 8.15984 15.5035 8.07803C15.5734 8.10758 15.6434 8.13939 15.7133 8.16893C15.5188 8.08258 15.3351 7.9735 15.1668 7.83942C15.2258 7.88714 15.2848 7.93486 15.3439 7.98259C15.1777 7.84851 15.029 7.69398 14.9 7.52126C14.946 7.58262 14.9919 7.64398 15.0378 7.70534C14.9088 7.53035 14.8038 7.33946 14.7208 7.13721C14.7492 7.20993 14.7798 7.28265 14.8082 7.35537C14.7295 7.15539 14.677 6.94859 14.6464 6.73724C14.6574 6.81678 14.6683 6.89859 14.677 6.97813C14.6486 6.7486 14.6486 6.51681 14.677 6.28501C14.6661 6.36455 14.6552 6.44636 14.6464 6.5259C14.677 6.31228 14.7295 6.10548 14.8082 5.90777C14.7798 5.98049 14.7492 6.05321 14.7208 6.12593C14.8038 5.92368 14.9088 5.73278 15.0378 5.5578C14.9919 5.61916 14.946 5.68052 14.9 5.74187C15.029 5.56916 15.1777 5.41463 15.3439 5.28055C15.2848 5.32827 15.2258 5.376 15.1668 5.42372C15.3351 5.28964 15.5188 5.18056 15.7133 5.0942C15.6434 5.12375 15.5734 5.15556 15.5035 5.1851C15.6959 5.10329 15.8948 5.04875 16.0981 5.01694C16.0216 5.0283 15.9429 5.03966 15.8664 5.04875C16.0872 5.01921 16.3102 5.01921 16.5332 5.04875C16.4567 5.03739 16.378 5.02603 16.3015 5.01694C16.507 5.04875 16.7059 5.10329 16.8961 5.1851C16.8262 5.15556 16.7562 5.12375 16.6863 5.0942C16.8808 5.18056 17.0645 5.28964 17.2328 5.42372C17.1738 5.376 17.1148 5.32827 17.0557 5.28055C17.2219 5.41463 17.3706 5.56916 17.4996 5.74187C17.4537 5.68052 17.4077 5.61916 17.3618 5.5578C17.4908 5.73278 17.5958 5.92368 17.6788 6.12593C17.6504 6.05321 17.6198 5.98049 17.5914 5.90777C17.6701 6.10775 17.7226 6.31455 17.7532 6.5259C17.7422 6.44636 17.7313 6.36455 17.7226 6.28501C17.7357 6.40091 17.7444 6.51681 17.7444 6.6327C17.7466 6.86678 17.8406 7.10994 18.0002 7.27583C18.1511 7.43263 18.4003 7.55308 18.619 7.54172C19.0912 7.51899 19.4957 7.14175 19.4935 6.6327C19.4891 5.96231 19.3011 5.26237 18.925 4.71242C18.7152 4.4079 18.49 4.15338 18.2057 3.92385C17.9193 3.69433 17.622 3.5307 17.2809 3.3989C16.6666 3.16028 15.9451 3.15119 15.3154 3.33299C14.7055 3.51025 14.1108 3.88522 13.7085 4.39881C13.5883 4.55107 13.4702 4.7056 13.374 4.87377C13.2712 5.04875 13.1969 5.23737 13.1226 5.42599C12.9979 5.74415 12.9411 6.08275 12.9149 6.4259C12.8624 7.09857 13.0395 7.81442 13.374 8.38937C13.6976 8.94614 14.1917 9.43928 14.7645 9.70971C14.9438 9.79379 15.1252 9.8756 15.3154 9.93014C15.5056 9.98468 15.7024 10.012 15.897 10.0347C16.2315 10.0756 16.5704 10.0415 16.8983 9.97559C17.5192 9.8506 18.1205 9.49155 18.5599 9.01886C19.0037 8.54163 19.3383 7.90987 19.4366 7.24856C19.4672 7.04403 19.4935 6.83723 19.4957 6.63043C19.4979 6.15547 19.0912 5.6987 18.6211 5.72142C18.1423 5.74642 17.7488 6.12366 17.7444 6.6327Z" fill="currentColor"/>
<path d="M13.1991 16.0093C13.1991 16.2979 13.1991 16.5866 13.1991 16.8729C13.1991 17.1683 13.2232 17.4774 13.1904 17.7728C13.2013 17.6933 13.2122 17.6115 13.221 17.5319C13.2101 17.6137 13.1904 17.691 13.1598 17.766C13.1882 17.6933 13.2188 17.6206 13.2472 17.5478C13.2166 17.6206 13.1794 17.6887 13.1335 17.7546C13.1794 17.6933 13.2254 17.6319 13.2713 17.5706C13.2188 17.641 13.1598 17.7024 13.092 17.7569C13.151 17.7092 13.2101 17.6615 13.2691 17.6137C13.2079 17.6615 13.1423 17.7001 13.0701 17.7319C13.1401 17.7024 13.2101 17.6706 13.28 17.641C13.2057 17.6706 13.1335 17.691 13.0548 17.7046C13.1313 17.6933 13.2101 17.6819 13.2866 17.6728C13.1554 17.6887 13.0198 17.6819 12.8865 17.6819C12.6132 17.6819 12.3399 17.6819 12.0688 17.6819C11.1571 17.6819 10.2476 17.6819 9.3359 17.6819C8.22963 17.6819 7.12117 17.6819 6.0149 17.6819C5.06166 17.6819 4.10624 17.6819 3.15301 17.6819C2.70045 17.6819 2.25007 17.6865 1.7975 17.6819C1.75377 17.6819 1.70786 17.6796 1.66413 17.6728C1.74065 17.6842 1.81936 17.6956 1.89588 17.7046C1.81718 17.6933 1.74284 17.6728 1.67069 17.641C1.74065 17.6706 1.81062 17.7024 1.88058 17.7319C1.81062 17.7001 1.74503 17.6615 1.68162 17.6137C1.74065 17.6615 1.79969 17.7092 1.85872 17.7569C1.79094 17.7024 1.73191 17.641 1.67944 17.5706C1.72535 17.6319 1.77126 17.6933 1.81718 17.7546C1.77126 17.691 1.7341 17.6228 1.70349 17.5478C1.73191 17.6206 1.76252 17.6933 1.79094 17.766C1.76252 17.6887 1.74284 17.6115 1.72972 17.5319C1.74065 17.6115 1.75159 17.6933 1.76033 17.7728C1.73191 17.5138 1.75377 17.2433 1.75377 16.9843C1.75377 16.6729 1.75377 16.3616 1.75377 16.0502C1.75377 15.8344 1.7647 15.6207 1.79094 15.4071C1.78001 15.4867 1.76908 15.5685 1.76033 15.648C1.8128 15.2412 1.91556 14.8458 2.0686 14.4686C2.04018 14.5413 2.00957 14.614 1.98115 14.6867C2.12763 14.3277 2.31784 13.9913 2.54522 13.68C2.49931 13.7414 2.45339 13.8027 2.40748 13.8641C2.64142 13.5505 2.91252 13.2687 3.21423 13.0255C3.1552 13.0732 3.09617 13.121 3.03714 13.1687C3.33448 12.9323 3.66024 12.7346 4.00567 12.5824C3.93571 12.6119 3.86575 12.6437 3.79579 12.6733C4.15872 12.5142 4.53913 12.4074 4.93048 12.3528C4.85396 12.3642 4.77526 12.3756 4.69874 12.3847C4.98733 12.346 5.27374 12.346 5.56233 12.346C5.92526 12.346 6.28818 12.346 6.6533 12.346C7.51908 12.346 8.38486 12.346 9.25064 12.346C9.5917 12.346 9.93277 12.3415 10.2738 12.3869C10.1973 12.3756 10.1186 12.3642 10.0421 12.3551C10.4269 12.4119 10.8007 12.5187 11.1593 12.6733C11.0893 12.6437 11.0194 12.6119 10.9494 12.5824C11.297 12.7369 11.6228 12.9369 11.9245 13.1755C11.8655 13.1278 11.8064 13.08 11.7474 13.0323C12.0469 13.2755 12.3158 13.555 12.5498 13.8686C12.5039 13.8073 12.458 13.7459 12.412 13.6845C12.6372 13.9913 12.8253 14.3254 12.9717 14.6822C12.9433 14.6095 12.9127 14.5367 12.8843 14.464C13.0351 14.839 13.1401 15.2321 13.1926 15.6366C13.1816 15.5571 13.1707 15.4753 13.162 15.3958C13.186 15.6003 13.1991 15.8048 13.1991 16.0093C13.2013 16.4843 13.5992 16.9411 14.0736 16.9183C14.5459 16.8956 14.9504 16.5184 14.9482 16.0093C14.946 15.4026 14.8542 14.7799 14.6552 14.2095C14.5503 13.905 14.4235 13.605 14.2726 13.3232C14.1217 13.0414 13.9381 12.7846 13.7457 12.5324C13.0242 11.587 11.9332 10.8962 10.7964 10.6553C10.2432 10.5371 9.69665 10.5303 9.13695 10.5303C8.54227 10.5303 7.94978 10.5303 7.35511 10.5303C6.79104 10.5303 6.22478 10.5303 5.66071 10.5303C5.10102 10.5303 4.54569 10.553 3.99912 10.6916C2.03362 11.1893 0.40919 12.9551 0.0899886 15.0435C-0.0127681 15.723 0.00472244 16.3979 0.00472244 17.0842C0.00472244 17.3024 -0.00839544 17.5251 0.00909506 17.7433C0.0440761 18.1932 0.199304 18.575 0.487898 18.9159C0.706529 19.1727 1.04978 19.3818 1.37554 19.4499C1.64008 19.5045 1.88714 19.4999 2.15387 19.4999C2.5168 19.4999 2.88191 19.4999 3.24484 19.4999C4.40577 19.4999 5.56452 19.4999 6.72545 19.4999C8.00007 19.4999 9.27469 19.4999 10.5493 19.4999C11.3539 19.4999 12.1606 19.4999 12.9652 19.4999C13.0286 19.4999 13.092 19.4999 13.1554 19.4999C13.6364 19.4977 14.1305 19.3 14.4584 18.925C14.7536 18.5887 14.911 18.1955 14.946 17.7433C14.9525 17.666 14.9504 17.5887 14.9504 17.5092C14.9504 17.2047 14.9504 16.9002 14.9504 16.5957C14.9504 16.4002 14.9504 16.2048 14.9504 16.0093C14.9504 15.5344 14.5481 15.0776 14.0758 15.1003C13.5992 15.1208 13.1991 15.498 13.1991 16.0093Z" fill="currentColor"/>
<path d="M20.2498 14.8142C20.2498 15.0778 20.2498 15.3414 20.2498 15.605C20.2498 15.8709 20.2673 16.1459 20.2454 16.4117C20.2564 16.3322 20.2673 16.2504 20.2761 16.1708C20.2695 16.2208 20.2586 16.2686 20.2411 16.3163C20.2695 16.2436 20.3001 16.1709 20.3285 16.0981C20.3089 16.1436 20.287 16.1845 20.2586 16.2254C20.3045 16.164 20.3504 16.1027 20.3963 16.0413C20.3657 16.0799 20.3351 16.114 20.2979 16.1436C20.357 16.0959 20.416 16.0481 20.475 16.0004C20.4357 16.03 20.3963 16.0527 20.3526 16.0731C20.4225 16.0436 20.4925 16.0118 20.5625 15.9822C20.5166 16.0004 20.4706 16.0118 20.4225 16.0186C20.4991 16.0072 20.5778 15.9959 20.6543 15.9868C20.4269 16.0072 20.193 15.9913 19.9656 15.9913C19.4453 15.9913 18.9271 15.9913 18.4068 15.9913C17.2327 15.9913 16.0608 15.9913 14.8868 15.9913C14.6157 15.9913 14.3446 15.9913 14.0713 15.9913C14.3621 16.2936 14.655 16.5981 14.9458 16.9003C14.9458 16.4481 14.9677 15.989 14.924 15.5391C14.83 14.5778 14.5326 13.6347 13.9795 12.8484C13.8133 12.6143 13.6384 12.3825 13.4438 12.1735C13.2383 11.9553 13.0131 11.769 12.7792 11.5826C12.8382 12.0576 12.8973 12.5348 12.9563 13.0098C13.0088 12.962 13.0612 12.9166 13.1159 12.8734C13.0569 12.9211 12.9978 12.9689 12.9388 13.0166C13.1509 12.8484 13.3804 12.7098 13.6253 12.6007C13.5553 12.6303 13.4854 12.6621 13.4154 12.6916C13.6668 12.5825 13.9292 12.5075 14.1981 12.4666C14.1216 12.478 14.0429 12.4894 13.9664 12.4984C14.2003 12.4666 14.432 12.4666 14.6682 12.4666C14.9721 12.4666 15.276 12.4666 15.5799 12.4666C16.2773 12.4666 16.9725 12.4666 17.67 12.4666C17.9214 12.4666 18.1706 12.4621 18.4221 12.4962C18.3455 12.4848 18.2668 12.4734 18.1903 12.4644C18.4636 12.5053 18.7281 12.5803 18.9839 12.6893C18.914 12.6598 18.844 12.628 18.7741 12.5984C19.0211 12.7098 19.255 12.8507 19.4671 13.0211C19.4081 12.9734 19.3491 12.9257 19.29 12.878C19.5021 13.0484 19.6901 13.2461 19.8541 13.4643C19.8082 13.4029 19.7623 13.3416 19.7164 13.2802C19.8803 13.5029 20.0159 13.7438 20.123 14.0006C20.0946 13.9279 20.064 13.8551 20.0356 13.7824C20.1427 14.046 20.2148 14.3233 20.252 14.6074C20.2411 14.5278 20.2301 14.446 20.2214 14.3665C20.2411 14.5187 20.2498 14.6664 20.2498 14.8142C20.2498 15.0482 20.346 15.2914 20.5056 15.4573C20.6565 15.6141 20.9057 15.7345 21.1243 15.7232C21.5966 15.7004 22.0011 15.3232 21.9989 14.8142C21.9945 13.6393 21.5048 12.4553 20.6368 11.6894C20.1864 11.2917 19.6836 10.9918 19.1151 10.8168C18.7391 10.7009 18.3368 10.6509 17.9454 10.6509C16.8479 10.6509 15.7504 10.6509 14.655 10.6509C14.3446 10.6509 14.0429 10.6668 13.7324 10.7145C12.9781 10.8304 12.2895 11.2099 11.7188 11.7258C11.5133 11.9121 11.4434 12.2212 11.4783 12.4894C11.4827 12.6098 11.5177 12.7234 11.5811 12.828C11.6598 12.9643 11.7626 13.0734 11.8959 13.1552C11.9047 13.162 11.9134 13.1688 11.9222 13.1757C11.8631 13.1279 11.8041 13.0802 11.7451 13.0325C12.0446 13.2756 12.3135 13.5552 12.5474 13.8688C12.5015 13.8074 12.4556 13.7461 12.4097 13.6847C12.6349 13.9915 12.8229 14.3256 12.9694 14.6823C12.941 14.6096 12.9104 14.5369 12.8819 14.4642C13.0328 14.8391 13.1377 15.2323 13.1902 15.6368C13.1793 15.5573 13.1684 15.4755 13.1596 15.3959C13.2208 15.8913 13.199 16.3981 13.199 16.8981C13.199 17.3889 13.5991 17.8071 14.0735 17.8071C14.4233 17.8071 14.7753 17.8071 15.1251 17.8071C15.8947 17.8071 16.6643 17.8071 17.4317 17.8071C18.1816 17.8071 18.9293 17.8071 19.6792 17.8071C19.9131 17.8071 20.1471 17.8071 20.381 17.8071C20.639 17.8071 20.8839 17.7957 21.1309 17.6889C21.6578 17.4571 21.9836 16.9412 21.9989 16.3458C22.0011 16.2345 21.9989 16.1209 21.9989 16.0072C21.9989 15.6345 21.9989 15.2618 21.9989 14.8891C21.9989 14.8619 21.9989 14.8369 21.9989 14.8096C21.9989 14.3346 21.5966 13.8779 21.1243 13.9006C20.6499 13.9279 20.2498 14.3051 20.2498 14.8142Z" fill="currentColor"/>
</svg>